<svg xmlns="http://www.w3.org/2000/svg" width="231.591" height="47.834" viewBox="0 0 231.591 47.834"><g transform="translate(-4.608 -21.334)"><path d="M120.826,313.785a5.333,5.333,0,0,1-2.973-.817,7.055,7.055,0,0,1-2.461-3.01c-1.545-3.2-2.3-8.423-2.3-15.953,0-11.045,2.6-16.646,7.729-16.646a6.043,6.043,0,0,1,5.493,3.484c1.525,2.746,2.3,7.174,2.3,13.161,0,1.62-.03,3.022-.092,4.287h-10.25a38.35,38.35,0,0,0,.786,8.57c.381,1.322.893,1.861,1.765,1.861,1.08,0,1.834-.7,2.255-4.2h4.826c-.587,3.454-1.517,5.867-2.843,7.38A5.334,5.334,0,0,1,120.826,313.785Zm0-31.349c-1.629,0-2.576,1.883-2.6,11.51h5.26a41.84,41.84,0,0,0-.692-9.308C122.391,283.095,121.8,282.436,120.826,282.436Zm-18.143,31.349a5.332,5.332,0,0,1-2.973-.817,7.046,7.046,0,0,1-2.457-3.01c-1.541-3.2-2.289-8.421-2.289-15.953,0-11.045,2.6-16.646,7.72-16.646a6.045,6.045,0,0,1,5.492,3.484c1.527,2.747,2.3,7.175,2.3,13.161,0,1.646-.035,3.048-.106,4.287H100.126a38.65,38.65,0,0,0,.791,8.57c.38,1.322.892,1.861,1.766,1.861a1.481,1.481,0,0,0,1.37-.8,9.115,9.115,0,0,0,.892-3.4h4.8C108.683,310.843,106.439,313.785,102.683,313.785Zm0-31.349c-1.628,0-2.575,1.883-2.593,11.51h5.252a42.346,42.346,0,0,0-.685-9.308C104.253,283.095,103.662,282.436,102.683,282.436ZM66.395,313.785a5.343,5.343,0,0,1-2.976-.817,7.054,7.054,0,0,1-2.462-3.01c-1.545-3.2-2.3-8.422-2.3-15.953,0-11.045,2.6-16.646,7.735-16.646a6.039,6.039,0,0,1,5.486,3.484c1.526,2.748,2.3,7.176,2.3,13.161,0,7.538-.752,12.756-2.3,15.953a7.041,7.041,0,0,1-2.477,3.01A5.434,5.434,0,0,1,66.395,313.785Zm0-31.349c-1.65,0-2.6,1.931-2.6,11.8,0,6.035.212,9.835.668,11.959.476,2.22,1.212,2.527,1.937,2.527.747,0,1.5-.306,1.988-2.527.46-2.11.674-5.91.674-11.959,0-4.733-.214-7.768-.674-9.553C67.977,283.109,67.382,282.436,66.395,282.436ZM206.56,313.782H132.932L132.943,277H206.56v36.781ZM133.726,277.8v35.175l36.059.015V300.712c.046-.026.086-.054.129-.084l.065-.045h.006a6.15,6.15,0,0,0,2.163-2.255,16.273,16.273,0,0,0,16.028,13.38,16.32,16.32,0,1,0-16.028-19.257,6.131,6.131,0,0,0-2.163-2.255h-.006c-.027-.017-.053-.036-.079-.054a1.062,1.062,0,0,0-.115-.075V277.818Zm76.743,35.938a2.112,2.112,0,1,1,0-4.225,2.128,2.128,0,0,1,1.5.6,2.071,2.071,0,0,1,.627,1.5A2.1,2.1,0,0,1,210.469,313.74Zm0-3.884a1.773,1.773,0,1,0,1.718,1.759A1.7,1.7,0,0,0,210.469,309.856Zm-117.2,3.634H87.99c-.736-3.373-.693-7.752-.654-11.616v-.008c.008-.8.015-1.551.015-2.265a3.069,3.069,0,0,0-.625-2.2,2.937,2.937,0,0,0-2.234-.685c-.119,0-.245,0-.376.008H82.706v16.731H77.479V277.67H85.16a6.4,6.4,0,0,1,5.182,2.118A8.376,8.376,0,0,1,92,285.3v3.232c0,2.236-.479,3.788-1.464,4.746A5.076,5.076,0,0,1,87.4,294.5v.091c2.234.281,4.824,1.027,5.019,4.319.1,1.628.137,3.32.169,4.957a62.707,62.707,0,0,0,.687,9.625ZM82.706,282.111v10.17c1.907-.054,4.069-.114,4.069-1.921v-6.322c0-1.423-1.276-1.928-2.369-1.928ZM37.423,313.458h-5.2l-.311-21.689h-.082L27.7,304.9H26.525L22.44,292.054h-.082l-.271,21.4H16.9l1.647-35.787h3.542l4.886,16.23h.083l5.17-16.23h3.623l1.574,35.787Zm11.975,0h-8.32V277.67h6.974c2.512,0,4.32.579,5.526,1.769,1.3,1.28,1.928,3.283,1.928,6.122v3.578c0,3.882-1.671,4.666-3.532,5.18v.089a4.691,4.691,0,0,1,3.708,5.022V306.8C55.682,311.707,52.436,313.457,49.4,313.457Zm-3.1-16.9v12.46h1.928c1.844,0,2.231-1.418,2.231-2.608v-7.241a2.376,2.376,0,0,0-2.231-2.611H46.3Zm0-14.441v10.072h2.074a2.116,2.116,0,0,0,2.085-2.4v-5.046A2.97,2.97,0,0,0,49.927,283a2.264,2.264,0,0,0-1.907-.888ZM9.887,313.457H4.654V300.112L-2.1,277.67H3.063L7.311,293.9H7.4l4.079-16.23h5.166L9.887,300.112v13.343Zm-11.672,0H-9.829c-2.473,0-4.324-1.247-5.659-3.812a20.7,20.7,0,0,1-1.825-6.034A61.315,61.315,0,0,1-18,293.7c0-5.934.845-10.359,2.512-13.155a6.364,6.364,0,0,1,5.659-3.48,6.02,6.02,0,0,1,5.007,2.554c1.509,2,2.454,5.17,2.807,9.426H-6.834a14.62,14.62,0,0,0-1.078-5.556,2.126,2.126,0,0,0-1.917-1.37c-.983,0-1.667.716-2.153,2.252-.6,1.883-.885,5.007-.885,9.548,0,12.536,1.753,14.491,3.468,14.749h3v-8.675H-8.849v-4.507h7.063v17.971Zm211.82-.582h-.372V310.4h.939c.565,0,.851.237.851.7a.645.645,0,0,1-.6.678l.668,1.093-.447,0-.654-1.082h-.387v1.082Zm0-2.153v.751h.414c.444,0,.63-.054.63-.39,0-.254-.163-.362-.544-.362Zm-58.641.987a16.317,16.317,0,1,1,15.121-22.43,6.114,6.114,0,0,0,.005,12.217,16.309,16.309,0,0,1-15.126,10.212Zm2.622-21.881,2.2,7.323v4.358h1.7v-4.358l2.209-7.323h-1.685l-1.335,5.3h-.026l-1.388-5.3Zm-3.228,4.5a2.162,2.162,0,0,0-2.429,2.219v2.922c0,1.26.683,2.042,1.783,2.042a1.828,1.828,0,0,0,1.609-.927v.833h1.716v-9.269a2.574,2.574,0,0,0-2.558-2.522,2.522,2.522,0,0,0-2.551,2.522h1.694a.885.885,0,0,1,.857-.84c.551,0,.841.376.841,1.088v1.931Zm-6.824-4.467h0v11.65h3.607v-1.684h-1.882v-9.967Zm-6.276-.032h0v11.682h1.742v-4.443h.53c.112.005.221.008.323.008a2.523,2.523,0,0,0,1.867-.582,2.448,2.448,0,0,0,.558-1.822V292.1a2.1,2.1,0,0,0-.5-1.607,2.984,2.984,0,0,0-2.216-.669Zm47.755,11.315a2.648,2.648,0,0,1-1.934-.785,2.888,2.888,0,0,1-.76-2.027V289.48h1.643v8.851c0,.751.383,1.182,1.05,1.182a1.041,1.041,0,0,0,1.026-1.182V289.48h1.67v8.851A2.665,2.665,0,0,1,185.442,301.142Zm14.842,0a1.894,1.894,0,0,1-1.776-1.246,12.818,12.818,0,0,1-.748-5.2c0-3.607.849-5.436,2.524-5.436,1.247,0,2.043,1.007,2.366,2.993h-1.608c-.147-1.109-.409-1.336-.758-1.336-.539,0-.85.629-.85,3.847,0,4.025.274,4.733.85,4.733.339,0,.593-.228.731-1.338h1.573C202.125,300.832,201.051,301.141,200.284,301.141Zm-9.292,0a2.737,2.737,0,0,1-1.495-.452l-.038-.03v-1.74l.141.121a1.858,1.858,0,0,0,1.225.607,1.032,1.032,0,0,0,1.033-1.029,6.853,6.853,0,0,0-1.035-2.723l-.055-.1a8.716,8.716,0,0,1-1.379-3.83,2.457,2.457,0,0,1,2.408-2.7,2.723,2.723,0,0,1,1.262.325l.05.02v1.572l-.121-.074a1.9,1.9,0,0,0-.982-.352.911.911,0,0,0-1.03,1.026,6.8,6.8,0,0,0,1.053,2.774l.033.061a8.557,8.557,0,0,1,1.373,3.822A2.474,2.474,0,0,1,190.993,301.141Zm-14.575-.2h-1.66l.525-11.462h1.135l1.564,5.2h.03l1.656-5.2h1.159l.5,11.461h-1.66l-.105-6.951h-.023l-1.325,4.2h-.37l-1.311-4.1h-.027l-.089,6.851Zm20.014,0h-1.66v-8.755h1.66v8.754Zm-45.524-1.132a.83.83,0,0,1-.857-.913v-2.389c0-.536.336-.786,1.057-.786h.642v2.8C151.75,299.532,151.569,299.81,150.908,299.81Zm15.368-.191a2.22,2.22,0,0,1-2.221-2.453,3.385,3.385,0,0,1,1.544-2.857,3.9,3.9,0,0,1-.554-1.8,1.68,1.68,0,0,1,3.353-.088c0,.772-.291,1.274-1.3,2.237l.805,1.75a6.789,6.789,0,0,0,.255-1.487l.024-.164h1.011a10.784,10.784,0,0,1-.632,3.118l.757,1.638h-1.37l-.212-.487A2,2,0,0,1,166.277,299.619Zm-.1-4.2h0a2.17,2.17,0,0,0-.869,1.674c0,.739.44,1.3,1.023,1.3a.942.942,0,0,0,.869-.6l-1.023-2.372Zm.564-3.538a.521.521,0,0,0-.525.562,2.232,2.232,0,0,0,.373,1.093,1.555,1.555,0,0,0,.7-1.106A.544.544,0,0,0,166.74,291.884Zm-26.78,3.784h-.53v-4.443h.015l.262,0h.055l.216,0c.064,0,.115,0,.162,0,.536,0,.826.18.826,1.127v2.811C140.922,295.668,140.455,295.668,139.96,295.668Zm56.472-4.548h-1.66V289.48h1.66v1.64Z" transform="translate(23.108 -255.166)" fill="#1a1818" stroke="rgba(0,0,0,0)" stroke-miterlimit="10" stroke-width="1"/><path d="M.819,2.5V10H5.786V9.16H1.816V2.5ZM12.642,7.291V2.5h-1V7.291a2.125,2.125,0,0,1-.5,1.528,1.923,1.923,0,0,1-1.454.52,2.128,2.128,0,0,1-1.543-.52,2.035,2.035,0,0,1-.536-1.528V2.5h-1V7.291A2.713,2.713,0,0,0,7.429,9.48a3.4,3.4,0,0,0,2.263.688,3.072,3.072,0,0,0,2.184-.719A2.822,2.822,0,0,0,12.642,7.291Zm3.381-1.145L13.419,10h1.113l2.079-3.1L18.627,10h1.218L17.209,6.146,19.688,2.5H18.574L16.622,5.432,14.752,2.5h-1.2ZM20.653,2.5V10h5.208V9.16H21.651V6.567h3.9v-.84h-3.9V3.343H25.83V2.5Zm6.437,0V10h.945V3.763h.021L30.4,10h.851L33.59,3.763h.021V10h.945V2.5H33.19L30.818,8.8,28.455,2.5ZM37.212,5.727V3.343h1.995a4.871,4.871,0,0,1,.614.037,1.362,1.362,0,0,1,.509.163.9.9,0,0,1,.347.357,1.323,1.323,0,0,1,.126.63,1.082,1.082,0,0,1-.373.9,1.967,1.967,0,0,1-1.223.3Zm-1-3.223V10h3.623a2.456,2.456,0,0,0,.982-.184,2.178,2.178,0,0,0,.714-.483,2,2,0,0,0,.436-.688,2.237,2.237,0,0,0,.147-.8,1.885,1.885,0,0,0-.368-1.176,1.725,1.725,0,0,0-1.061-.63V6.021a1.7,1.7,0,0,0,.824-.646A1.829,1.829,0,0,0,41.8,4.341a1.693,1.693,0,0,0-.257-.956,1.953,1.953,0,0,0-.625-.609,1.283,1.283,0,0,0-.4-.157,4.207,4.207,0,0,0-.509-.079q-.273-.026-.551-.032t-.52-.005Zm1,6.657V6.567h2.278a3.153,3.153,0,0,1,.609.058,1.518,1.518,0,0,1,.52.2,1.059,1.059,0,0,1,.362.383,1.225,1.225,0,0,1,.137.609,1.3,1.3,0,0,1-.373.987,1.434,1.434,0,0,1-1.034.357Zm6.772-2.908a4.322,4.322,0,0,1,.147-1.118,3.037,3.037,0,0,1,.462-.992,2.362,2.362,0,0,1,.808-.709,2.716,2.716,0,0,1,2.352,0,2.362,2.362,0,0,1,.808.709,3.037,3.037,0,0,1,.462.992,4.327,4.327,0,0,1,0,2.236,3.037,3.037,0,0,1-.462.992,2.362,2.362,0,0,1-.808.709,2.716,2.716,0,0,1-2.352,0,2.362,2.362,0,0,1-.808-.709,3.037,3.037,0,0,1-.462-.992A4.322,4.322,0,0,1,43.985,6.252Zm-1,0a4.831,4.831,0,0,0,.226,1.475,3.718,3.718,0,0,0,.677,1.255,3.249,3.249,0,0,0,1.124.866,3.982,3.982,0,0,0,3.129,0,3.249,3.249,0,0,0,1.124-.866,3.718,3.718,0,0,0,.677-1.255,4.933,4.933,0,0,0,0-2.951,3.718,3.718,0,0,0-.677-1.255,3.306,3.306,0,0,0-1.124-.872,3.923,3.923,0,0,0-3.129,0,3.306,3.306,0,0,0-1.124.872,3.718,3.718,0,0,0-.677,1.255A4.831,4.831,0,0,0,42.987,6.252Zm14.385,1.04V2.5h-1V7.291a2.125,2.125,0,0,1-.5,1.528,1.923,1.923,0,0,1-1.454.52,2.128,2.128,0,0,1-1.543-.52,2.035,2.035,0,0,1-.535-1.528V2.5h-1V7.291a2.713,2.713,0,0,0,.814,2.189,3.4,3.4,0,0,0,2.263.688,3.072,3.072,0,0,0,2.184-.719A2.822,2.822,0,0,0,57.372,7.291Zm1.6-4.788V10h1V6.8H62.4a1.324,1.324,0,0,1,.588.11.984.984,0,0,1,.357.294,1.219,1.219,0,0,1,.2.431q.063.247.1.52a3.66,3.66,0,0,1,.063.556q.01.284.021.53a3.235,3.235,0,0,0,.047.446.626.626,0,0,0,.142.315h1.113a1.282,1.282,0,0,1-.236-.436,3.415,3.415,0,0,1-.121-.52,4.834,4.834,0,0,1-.053-.557q-.01-.284-.031-.556a4.825,4.825,0,0,0-.089-.525,1.593,1.593,0,0,0-.178-.457A1.151,1.151,0,0,0,64,6.6a1.336,1.336,0,0,0-.53-.21V6.367a1.594,1.594,0,0,0,.992-.7,2.275,2.275,0,0,0,.31-1.2,1.807,1.807,0,0,0-.6-1.438A2.469,2.469,0,0,0,62.5,2.5Zm3.076,3.454H59.965V3.343h2.478a1.294,1.294,0,0,1,1.019.357,1.345,1.345,0,0,1,.315.924,1.375,1.375,0,0,1-.142.667,1.121,1.121,0,0,1-.378.41,1.443,1.443,0,0,1-.551.2A4.021,4.021,0,0,1,62.044,5.957Zm9.723,3.108L72.03,10h.63V6.052H69.373v.84h2.394a2.549,2.549,0,0,1-.137.961,2.141,2.141,0,0,1-1.229,1.3,2.674,2.674,0,0,1-1.039.189,2.381,2.381,0,0,1-1.108-.247,2.419,2.419,0,0,1-.8-.661,2.948,2.948,0,0,1-.493-.956,3.782,3.782,0,0,1-.168-1.129,4.687,4.687,0,0,1,.147-1.171,3.137,3.137,0,0,1,.457-1.019,2.281,2.281,0,0,1,1.969-.992,3.056,3.056,0,0,1,.793.1,2.181,2.181,0,0,1,.667.3,1.757,1.757,0,0,1,.493.509,1.961,1.961,0,0,1,.273.74h1a3.031,3.031,0,0,0-.394-1.129,2.649,2.649,0,0,0-.714-.772,2.91,2.91,0,0,0-.966-.446,4.519,4.519,0,0,0-1.15-.142,3.468,3.468,0,0,0-1.559.331,3.265,3.265,0,0,0-1.113.887,3.838,3.838,0,0,0-.672,1.3A5.316,5.316,0,0,0,65.793,6.4a4.218,4.218,0,0,0,.242,1.418,3.653,3.653,0,0,0,.7,1.208,3.393,3.393,0,0,0,1.123.835,3.5,3.5,0,0,0,1.5.31,3.546,3.546,0,0,0,1.313-.257A2.493,2.493,0,0,0,71.768,9.066Z" transform="translate(156 59)" fill="#1a1818"/></g></svg>