<svg xmlns="http://www.w3.org/2000/svg" width="210.172" height="18.149" viewBox="0 0 210.172 18.149"><path d="M5.1,21.68V30H2.183V12.656H5.1v7.91h8.716v-7.91h2.915V30H13.813V21.68Zm21.409-9.419L34.666,30H31.707l-2.651-5.786H21.629L18.89,30H17.425l8.364-17.739ZM22.142,23.086h6.387L25.379,16.23Zm13.25-10.43h6.987a9.848,9.848,0,0,1,2.534.308,6.431,6.431,0,0,1,1.985.872,4.224,4.224,0,0,1,1.289,1.348,3.358,3.358,0,0,1,.461,1.736,5.046,5.046,0,0,1-.146,1.267,2.879,2.879,0,0,1-.513,1.04,4.376,4.376,0,0,1-.974.9,10.823,10.823,0,0,1-1.531.864v.059a6.178,6.178,0,0,1,1.67.5,4.356,4.356,0,0,1,1.282.9,3.828,3.828,0,0,1,.82,1.267,4.284,4.284,0,0,1,.286,1.6,4.026,4.026,0,0,1-.432,1.838,4.45,4.45,0,0,1-1.223,1.487,6.056,6.056,0,0,1-1.912,1,8.012,8.012,0,0,1-2.5.366H35.392Zm2.915,7.808h3.706a4.528,4.528,0,0,0,1.56-.249,3.327,3.327,0,0,0,1.15-.688,2.884,2.884,0,0,0,.71-1.04,3.46,3.46,0,0,0,.242-1.3A3.281,3.281,0,0,0,45.39,15.8a2.687,2.687,0,0,0-.894-1.062,4.563,4.563,0,0,0-1.545-.681,9.072,9.072,0,0,0-2.241-.242h-2.4Zm0,8.262h3.149a8.844,8.844,0,0,0,2.2-.242A4.566,4.566,0,0,0,45.2,27.8a2.779,2.779,0,0,0,.9-1.047,3.08,3.08,0,0,0,.293-1.355,4.3,4.3,0,0,0-.264-1.523,3.02,3.02,0,0,0-.857-1.223,4.25,4.25,0,0,0-1.553-.82,7.956,7.956,0,0,0-2.351-.3H38.307ZM50.825,12.656H53.74V30H50.825Zm19.534,0V13.77H64.075V30H61.16V13.77H54.876V12.656Zm6.292-.4L84.811,30H81.852L79.2,24.214H71.774L69.035,30H67.57l8.364-17.739ZM72.287,23.086h6.387L75.524,16.23Zm13.25-10.43h5.991a10.04,10.04,0,0,1,2.747.337,5.913,5.913,0,0,1,1.97.938,3.874,3.874,0,0,1,1.187,1.436,4.189,4.189,0,0,1,.4,1.816,3.723,3.723,0,0,1-.308,1.509,4.113,4.113,0,0,1-.872,1.267,5.636,5.636,0,0,1-1.348.981,7.078,7.078,0,0,1-1.721.637L99.892,30H96.508l-6.021-8.159H88.452V30H85.537Zm2.915,8.32h1.67a6.163,6.163,0,0,0,1.816-.256,4.335,4.335,0,0,0,1.443-.74,3.455,3.455,0,0,0,.952-1.172,3.391,3.391,0,0,0,.344-1.538,3.63,3.63,0,0,0-.271-1.421,3.329,3.329,0,0,0-.754-1.113A3.442,3.442,0,0,0,92.495,14a4.027,4.027,0,0,0-1.479-.264H88.452Zm18.034-8.32h1.626l11.367,12.671h.117V12.656h1.274V30.41H120.2L107.892,16.3h-.1V30h-1.3Zm24.178-.4L138.823,30h-2.959l-2.651-5.786h-7.427L123.046,30h-1.465l8.364-17.739ZM126.3,23.086h6.387l-3.149-6.855Zm25.233-10.43V13.77h-6.284V30h-2.915V13.77h-6.284V12.656Zm.828,0h2.915v11.25A5.739,5.739,0,0,0,155.655,26a5.064,5.064,0,0,0,1.091,1.714,5.174,5.174,0,0,0,1.707,1.157,6.086,6.086,0,0,0,4.468,0,5.013,5.013,0,0,0,1.692-1.157A5.085,5.085,0,0,0,165.682,26a5.839,5.839,0,0,0,.374-2.095V12.656h1.289v11.25a7.244,7.244,0,0,1-.432,2.512,5.454,5.454,0,0,1-1.348,2.065,6.515,6.515,0,0,1-2.351,1.406,10.185,10.185,0,0,1-3.457.52,9.026,9.026,0,0,1-3.186-.52,6.682,6.682,0,0,1-2.314-1.414,5.97,5.97,0,0,1-1.414-2.087,6.707,6.707,0,0,1-.483-2.542Zm17.513,0h5.991a10.04,10.04,0,0,1,2.747.337,5.913,5.913,0,0,1,1.97.938,3.874,3.874,0,0,1,1.187,1.436,4.189,4.189,0,0,1,.4,1.816,3.723,3.723,0,0,1-.308,1.509,4.113,4.113,0,0,1-.872,1.267,5.636,5.636,0,0,1-1.348.981,7.078,7.078,0,0,1-1.721.637L184.228,30h-3.384l-6.021-8.159h-2.036V30h-2.915Zm2.915,8.32h1.67a6.163,6.163,0,0,0,1.816-.256,4.335,4.335,0,0,0,1.443-.74,3.455,3.455,0,0,0,.952-1.172,3.391,3.391,0,0,0,.344-1.538,3.63,3.63,0,0,0-.271-1.421,3.329,3.329,0,0,0-.754-1.113A3.442,3.442,0,0,0,176.83,14a4.027,4.027,0,0,0-1.479-.264h-2.563Zm19.051-8.716L200,30h-2.959l-2.651-5.786h-7.427L184.221,30h-1.465l8.364-17.739Zm-4.365,10.825h6.387l-3.149-6.855Zm13.25-10.43h2.915v16.23h8.716V30H200.724Z" transform="translate(-2.183 -12.261)" fill="#1a1818"/></svg>