<svg xmlns="http://www.w3.org/2000/svg" width="220.057" height="38.8" viewBox="0 0 220.057 38.8"><g transform="translate(-27 -15.443)"><path d="M242.237,15.634a9.76,9.76,0,0,0-6.944,4.954c-1.572,3.223-1.413,6.108.537,8.814.975,1.373,4.039,3.741,9.53,7.362a39.608,39.608,0,0,1,5.69,4.158c2.726,3.084,1.532,8.118-2.408,10.048a4.986,4.986,0,0,1-3.124.617,9.808,9.808,0,0,1-5.671-1.572,13.046,13.046,0,0,1-4.855-7.441c-.239-1.015-.438-1.472-.657-1.512-.318-.06-.338.5-.338,6.427,0,5.85.04,6.486.318,6.427.179-.04.438-.418.577-.836a2.062,2.062,0,0,1,1.95-1.651c.756-.1,1.194.02,2.845.8,4.1,1.85,6.506,2.268,9.53,1.632a10.821,10.821,0,0,0,8.5-8.5,9.355,9.355,0,0,0-2.308-7.66c-1.234-1.353-3.064-2.726-8.615-6.447-5.491-3.661-5.989-4.059-6.844-5.392a3.408,3.408,0,0,1-.676-2.547,4.427,4.427,0,0,1,1.711-3.86,8.888,8.888,0,0,1,7.123-1.433c3.462.9,5.491,3.482,6.745,8.575a3.3,3.3,0,0,0,.6,1.452c.179.06.239-1.273.239-6.208,0-5.193-.04-6.287-.279-6.287-.139,0-.318.279-.4.617a2.761,2.761,0,0,1-.7,1.194c-.816.816-1.791.776-3.5-.119A12.876,12.876,0,0,0,242.237,15.634Z" transform="translate(-165.814)"/><path d="M27,18.4c0,.358.139.4,1.353.4,1.731,0,2.746.537,3.382,1.791l.438.875V36.7c0,9.71-.08,15.48-.2,15.957-.4,1.413-2.01,2.348-4.019,2.348-.716,0-.955.08-.955.3,0,.259.975.3,7.66.3s7.66-.04,7.66-.3c0-.219-.239-.3-.935-.3-2.029,0-3.363-.756-3.94-2.248-.259-.716-.3-1.791-.259-7.6l.06-6.765H55.353l.06,6.765a61.092,61.092,0,0,1-.159,7.5c-.4,1.413-2.01,2.348-4.019,2.348-.716,0-.955.08-.955.3,0,.259.935.3,7.7.259,5.929-.04,7.7-.119,7.78-.318.06-.179-.259-.239-1.094-.239a4.989,4.989,0,0,1-3.084-.935c-.995-.9-.955-.358-.955-17.29,0-15.4,0-15.858.378-16.474A3.583,3.583,0,0,1,64.286,18.8c1.174,0,1.313-.04,1.313-.4,0-.4-.139-.4-7.66-.4-7.382,0-7.66.02-7.66.378,0,.338.179.378,1.552.438,1.83.1,2.666.557,3.243,1.85.338.756.378,1.433.378,8.337v7.5l-9.113-.04-9.093-.06V21.084l.478-.756a3.466,3.466,0,0,1,3.3-1.532c1.154,0,1.293-.04,1.293-.4,0-.4-.139-.4-7.66-.4S27,18,27,18.4Z" transform="translate(0 -2.048)"/><path d="M364,19.218c0,.378.119.418,1.452.418,1.671,0,2.587.378,3.283,1.393l.438.657v15.8c0,13.172-.04,15.878-.279,16.335-.657,1.253-1.87,1.83-3.84,1.83-.816,0-1.055.06-1.055.3,0,.279,1.114.318,10.406.259,10.147-.08,10.426-.08,11.878-.537,5.412-1.632,7.939-4.875,7.72-9.889a6.156,6.156,0,0,0-.816-3.323,9.94,9.94,0,0,0-4.815-4.536l-1.691-.836,1.234-.676a7.334,7.334,0,0,0,3.144-2.885,8.939,8.939,0,0,0,.637-8.4c-1.293-2.766-4.3-4.855-8.237-5.73-1.671-.378-2.666-.418-10.645-.5L364,18.8Zm17.41,1.711a9.708,9.708,0,0,1,4.178,2.308,7.69,7.69,0,0,1,1.154,8.6,9.906,9.906,0,0,1-2.984,3.343c-1.452.9-4.6,1.333-7.68,1.074l-1.731-.139V21.048l.855-.179A19.672,19.672,0,0,1,381.41,20.929Zm.4,17.31a8.1,8.1,0,0,1,5.929,4.636c.6,1.253.637,1.472.637,3.522s-.04,2.268-.617,3.5a7.776,7.776,0,0,1-4.974,4.377,17.557,17.557,0,0,1-7.183.2l-1.254-.279V46.178c0-7.461.02-8.018.358-8.1A34.7,34.7,0,0,1,381.807,38.239Z" transform="translate(-269.948 -2.689)"/><path d="M546.552,19.615a17.886,17.886,0,0,0-10.147,6.327c-2.228,2.766-3.363,5.929-3.78,10.645-.736,8.217,2.925,15.241,9.749,18.663,7.9,3.94,15.858,2.228,21.667-4.676,1.711-2.029,1.731-2.049,1.293-2.368-.318-.239-.517-.1-1.831,1.293a14.5,14.5,0,0,1-8.038,4.636,13.464,13.464,0,0,1-9.013-1.174c-4.934-2.368-7.521-6.864-7.8-13.55-.318-7.72,2.527-14.027,7.382-16.395a11.571,11.571,0,0,1,5.591-1.393,11.755,11.755,0,0,1,8.456,3.522,10.715,10.715,0,0,1,3.343,5.75c.279,1.114.478,1.592.716,1.632.4.08.4-1.035.04-8.1-.159-3.382-.278-4.7-.458-4.755-.139-.04-.318.1-.378.3-.378,1.154-.6,1.492-1.094,1.751-.915.478-1.632.358-3.8-.7a13.848,13.848,0,0,0-7.322-1.711A16.407,16.407,0,0,0,546.552,19.615Z" transform="translate(-404.948 -3.086)"/><path d="M764.851,28.351,755.5,37.7l9.292,9.292c5.113,5.113,9.351,9.252,9.411,9.192s.08-8.456.06-18.643L774.2,19Z" transform="translate(-583.553 -2.849)"/><path d="M859.812,28.292,869.1,37.6l9.292-9.312L887.707,19H850.5Z" transform="translate(-659.651 -2.849)"/><path d="M1039,37.643V56.306l9.351-9.351L1057.7,37.6l-9.292-9.292c-5.133-5.133-9.332-9.312-9.351-9.312C1039.02,19,1039,27.4,1039,37.643Z" transform="translate(-810.646 -2.849)"/><path d="M859.852,122.351,850.5,131.7h37.406l-9.351-9.351C873.421,117.2,869.2,113,869.2,113S864.985,117.2,859.852,122.351Z" transform="translate(-659.651 -78.146)"/></g></svg>