<svg xmlns="http://www.w3.org/2000/svg" xmlns:xlink="http://www.w3.org/1999/xlink" width="128" height="128" viewBox="0 0 128 128"><defs><clipPath id="b"><rect width="128" height="128"/></clipPath></defs><g id="a" clip-path="url(#b)"><rect width="128" height="128" fill="rgba(255,255,255,0)"/><path d="M66,112H5a5.006,5.006,0,0,1-5-5V5A5.006,5.006,0,0,1,5,0H79a5.006,5.006,0,0,1,5,5V66H81V5a2,2,0,0,0-2-2H5A2,2,0,0,0,3,5v98a2,2,0,0,0,2,2H66v7Zm-24-6a2,2,0,1,0,2,2A2,2,0,0,0,42,106Z" transform="translate(18 8)" fill="#1e3e59"/><path d="M23,44H1a1,1,0,0,1-1-1V1A1,1,0,0,1,1,0H23a1,1,0,0,1,1,1V43A1,1,0,0,1,23,44ZM12,41.5a1,1,0,1,0,1,1A1,1,0,0,0,12,41.5ZM1,1V41H23V1Z" transform="translate(86 76)" fill="#1e3e59"/></g></svg>