<svg xmlns="http://www.w3.org/2000/svg" xmlns:xlink="http://www.w3.org/1999/xlink" width="128" height="128" viewBox="0 0 128 128"><defs><clipPath id="b"><rect width="128" height="128"/></clipPath></defs><g id="a" clip-path="url(#b)"><rect width="128" height="128" fill="rgba(255,255,255,0)"/><g transform="translate(19 4)" fill="none" stroke="#1e3e59" stroke-width="1"><rect width="90" height="120" stroke="none"/><rect x="0.5" y="0.5" width="89" height="119" fill="none"/></g><rect width="88" height="10" transform="translate(20 5)" fill="#1e3e59"/><g transform="translate(23 25)" fill="none" stroke="#1e3e59" stroke-width="1"><rect width="82" height="18" stroke="none"/><rect x="0.5" y="0.5" width="81" height="17" fill="none"/></g><g transform="translate(23 106)" fill="none" stroke="#1e3e59" stroke-width="1"><rect width="82" height="18" stroke="none"/><rect x="0.5" y="0.5" width="81" height="17" fill="none"/></g><g transform="translate(91 17)" fill="none" stroke="#1e3e59" stroke-width="1"><rect width="14" height="4" stroke="none"/><rect x="0.5" y="0.5" width="13" height="3" fill="none"/></g><rect width="26" height="14" transform="translate(79 52)" fill="#1e3e59"/><rect width="16" height="14" transform="translate(79 71)" fill="#1e3e59"/><rect width="26" height="9" transform="translate(79 90)" fill="#1e3e59"/><g transform="translate(75 17)" fill="none" stroke="#1e3e59" stroke-width="1"><rect width="14" height="4" stroke="none"/><rect x="0.5" y="0.5" width="13" height="3" fill="none"/></g><g transform="translate(59 17)" fill="none" stroke="#1e3e59" stroke-width="1"><rect width="14" height="4" stroke="none"/><rect x="0.5" y="0.5" width="13" height="3" fill="none"/></g><g transform="translate(43 17)" fill="none" stroke="#1e3e59" stroke-width="1"><rect width="14" height="4" stroke="none"/><rect x="0.5" y="0.5" width="13" height="3" fill="none"/></g><line x2="37" transform="translate(27.5 52.5)" fill="none" stroke="#1e3e59" stroke-width="1"/><line x2="37" transform="translate(27.5 72.5)" fill="none" stroke="#1e3e59" stroke-width="1"/><line x2="37" transform="translate(27.5 92.5)" fill="none" stroke="#1e3e59" stroke-width="1"/><line x2="16" transform="translate(29.5 111.5)" fill="none" stroke="#1e3e59" stroke-width="1"/><line x2="16" transform="translate(56.5 111.5)" fill="none" stroke="#1e3e59" stroke-width="1"/><line x2="16" transform="translate(82.5 111.5)" fill="none" stroke="#1e3e59" stroke-width="1"/><line x2="16" transform="translate(29.5 114.5)" fill="none" stroke="#1e3e59" stroke-width="1"/><line x2="16" transform="translate(56.5 114.5)" fill="none" stroke="#1e3e59" stroke-width="1"/><line x2="16" transform="translate(82.5 114.5)" fill="none" stroke="#1e3e59" stroke-width="1"/><line x2="16" transform="translate(29.5 117.5)" fill="none" stroke="#1e3e59" stroke-width="1"/><line x2="16" transform="translate(56.5 117.5)" fill="none" stroke="#1e3e59" stroke-width="1"/><line x2="16" transform="translate(82.5 117.5)" fill="none" stroke="#1e3e59" stroke-width="1"/><line x2="16" transform="translate(29.5 120.5)" fill="none" stroke="#1e3e59" stroke-width="1"/><line x2="16" transform="translate(56.5 120.5)" fill="none" stroke="#1e3e59" stroke-width="1"/><line x2="16" transform="translate(82.5 120.5)" fill="none" stroke="#1e3e59" stroke-width="1"/><line x2="32" transform="translate(27.5 75.5)" fill="none" stroke="#1e3e59" stroke-width="1"/><line x2="23" transform="translate(27.5 78.5)" fill="none" stroke="#1e3e59" stroke-width="1"/><line x2="19" transform="translate(27.5 95.5)" fill="none" stroke="#1e3e59" stroke-width="1"/><line x2="34" transform="translate(27.5 62.5)" fill="none" stroke="#1e3e59" stroke-width="1"/><line x2="34" transform="translate(27.5 81.5)" fill="none" stroke="#1e3e59" stroke-width="1"/><line x2="34" transform="translate(27.5 98.5)" fill="none" stroke="#1e3e59" stroke-width="1"/><line y1="9" x2="63" transform="translate(32.5 29.5)" fill="none" stroke="#1e3e59" stroke-width="1"/><line x2="63" y2="9" transform="translate(32.5 29.5)" fill="none" stroke="#1e3e59" stroke-width="1"/></g></svg>