<svg xmlns="http://www.w3.org/2000/svg" xmlns:xlink="http://www.w3.org/1999/xlink" width="140" height="40" viewBox="0 0 140 40"><defs><clipPath id="b"><rect width="140" height="40"/></clipPath></defs><g id="a" clip-path="url(#b)"><rect width="140" height="40" fill="rgba(255,255,255,0)"/><rect width="139" height="11.5" transform="translate(0.5 28.5)" fill="#12298b"/><path d="M2.944-3.083H7.286v-8.063a4.258,4.258,0,0,1,4.342-4.419,4.214,4.214,0,0,1,4.342,4.419v8.063H20.31v-8.063c0-5.039-3.566-8.451-8.606-8.451a8.63,8.63,0,0,0-8.761,8.451Z" transform="translate(-2.444 31.303)" fill="#fecc2f"/><path d="M36.283-2.695a8.673,8.673,0,0,0,8.683-8.451c0-5.039-3.644-8.451-8.683-8.451A8.673,8.673,0,0,0,27.6-11.145C27.6-6.106,31.244-2.695,36.283-2.695Zm0-4.031a4.3,4.3,0,0,1-4.342-4.419,4.258,4.258,0,0,1,4.342-4.419,4.214,4.214,0,0,1,4.342,4.419A4.258,4.258,0,0,1,36.283-6.726Z" transform="translate(-5.064 31.303)" fill="#fecc2f"/><path d="M60.019-2.695a8.378,8.378,0,0,1-5.97-2.481l2.636-2.713a4.27,4.27,0,0,0,3.334,1.473,4.448,4.448,0,0,0,4.419-3.256h-13.1v-1.473c.31-5.272,3.644-8.451,8.683-8.451A8.673,8.673,0,0,1,68.7-11.145C68.7-6.106,65.058-2.695,60.019-2.695Zm4.342-10.311a4.472,4.472,0,0,0-4.342-3.1,4.409,4.409,0,0,0-4.419,3.1Z" transform="translate(-6.641 31.303)" fill="#fecc2f"/><path d="M77.142-5.268h4.342v-28.22H77.142Z" transform="translate(-10.228 33.488)" fill="#fecc2f"/><path d="M97.049-4.88a8.673,8.673,0,0,0,8.683-8.451c0-5.039-3.411-8.451-8.3-8.451A6.3,6.3,0,0,0,92.708-20v-13.49H88.366v20.157C88.366-8.292,92.01-4.88,97.049-4.88Zm0-4.031a4.3,4.3,0,0,1-4.342-4.419,4.258,4.258,0,0,1,4.342-4.419,4.214,4.214,0,0,1,4.342,4.419A4.258,4.258,0,0,1,97.049-8.912Z" transform="translate(-12.468 33.488)" fill="#fecc2f"/><path d="M114.223-5.34h4.342V-21.466h-4.342Z" transform="translate(-15.99 33.56)" fill="#fecc2f"/><path d="M116.471-28.6a2.681,2.681,0,0,0,2.636-2.713,2.614,2.614,0,0,0-2.636-2.636,2.681,2.681,0,0,0-2.713,2.636A2.747,2.747,0,0,0,116.471-28.6Z" transform="translate(-15.99 33.948)" fill="#af52de"/><path d="M126.785-5.268h4.342V-17.362H133.3v-4.031h-2.171V-33.488h-4.342v12.094h-2.171v4.031h2.171Z" transform="translate(-15.226 33.488)" fill="#fecc2f"/><path d="M138.879-3.01h11.164A5.1,5.1,0,0,0,155-7.972a4.9,4.9,0,0,0-4.962-4.962h-6.28a1.262,1.262,0,0,1-1.318-1.318,1.292,1.292,0,0,1,1.318-1.24h9.226v-3.644h-9.613a5.048,5.048,0,0,0-4.962,4.962,4.946,4.946,0,0,0,4.962,4.962h6.28a1.244,1.244,0,0,1,1.318,1.24,1.262,1.262,0,0,1-1.318,1.318H138.879Z" transform="translate(-15.614 31.23)" fill="#fecc2f"/><path d="M.462-5.068,6.538-7.91v1.022L1.568-4.62,6.524-2.352,6.538-1.33.462-4.172ZM10.206.238A.827.827,0,0,1,9.59-.021a.861.861,0,0,1-.252-.623.861.861,0,0,1,.252-.623.827.827,0,0,1,.616-.259.849.849,0,0,1,.623.259.849.849,0,0,1,.259.623.849.849,0,0,1-.259.623A.849.849,0,0,1,10.206.238Zm-.49-6.02-.028-1.54q0-.574-.028-1.3a2.18,2.18,0,0,1-.014-.266q0-.756.588-.756t.6.812a2.551,2.551,0,0,1-.014.28q-.014.07-.042,1.232L10.738-5.81v2.632q0,.49-.014.6-.056.392-.294.434a1.311,1.311,0,0,1-.21.014q-.5,0-.5-.7Zm4.228,2.044q0-.49.56-.49h2.184q.56,0,.56.476,0,.5-.56.5H14.5Q13.944-3.248,13.944-3.738Zm4.606,0q0-.49.56-.49h2.184q.56,0,.56.476,0,.5-.56.5H19.11Q18.55-3.248,18.55-3.738Z" transform="translate(2.038 39.146)" fill="#28cd41"/><path d="M6.566.182A1.3,1.3,0,0,1,5.152-.812,2.517,2.517,0,0,1,2.912.238,2.761,2.761,0,0,1,1.1-.322,1.843,1.843,0,0,1,.42-1.82a1.816,1.816,0,0,1,.994-1.708A2.605,2.605,0,0,1,2.065-3.8q.273-.063,1.1-.161A4.218,4.218,0,0,0,4.7-4.312a.9.9,0,0,0,.357-.826,1.107,1.107,0,0,0-.4-.9A1.7,1.7,0,0,0,3.542-6.37a2.139,2.139,0,0,0-1.176.35q-.21.14-.21.294,0,.056.126.14a.545.545,0,0,1,.2.476.593.593,0,0,1-.2.462.737.737,0,0,1-.511.182.815.815,0,0,1-.609-.252A.85.85,0,0,1,.91-5.334a1.628,1.628,0,0,1,.777-1.344,3.135,3.135,0,0,1,1.883-.56q2.548,0,2.548,2.45V-1.96a5.985,5.985,0,0,0,.028.8q.084.49.476.49.49,0,.49-.9v-.686A.39.39,0,0,1,7.546-2.7q.462,0,.462.672v.07l-.014.8A1.242,1.242,0,0,1,6.566.182ZM5.012-2.6,5.026-3.6a1.8,1.8,0,0,1-.651.392,6.528,6.528,0,0,1-1.225.2q-1.6.154-1.6,1.176a1.018,1.018,0,0,0,.385.84,1.624,1.624,0,0,0,1.043.308A2.06,2.06,0,0,0,4.459-1.2,1.889,1.889,0,0,0,5.012-2.6Z" transform="translate(35.5 39.02)" fill="#147afc"/><path d="M2.366-8.932Q2.254-7.77,2.24-6.174A2.822,2.822,0,0,1,3.15-7a2.524,2.524,0,0,1,1.162-.238,2.761,2.761,0,0,1,2.226.98,3.907,3.907,0,0,1,.826,2.6A4.307,4.307,0,0,1,6.489-.819,2.9,2.9,0,0,1,4.13.238,2.244,2.244,0,0,1,2.044-.84q.056.406.056.448a.439.439,0,0,1-.49.5q-.49,0-.49-.7a2.262,2.262,0,0,1,.014-.294q0-.322.014-.686L1.19-2.646,1.218-4.06,1.19-7.8a1.9,1.9,0,0,0-.105-.7A.323.323,0,0,0,.77-8.68q-.042,0-.364.056A1.518,1.518,0,0,1,.14-8.6q-.476,0-.476-.448t.56-.462a2.321,2.321,0,0,1,.28.014L.84-9.45a3.063,3.063,0,0,0,.364.028,2.7,2.7,0,0,0,.434-.049,2.679,2.679,0,0,1,.42-.049q.308,0,.308.392Zm-.014,4.06a6.233,6.233,0,0,0-.1,1.26,5.449,5.449,0,0,0,.224,1.9A1.631,1.631,0,0,0,4.13-.686a1.811,1.811,0,0,0,1.533-.763A3.363,3.363,0,0,0,6.23-3.5a3.479,3.479,0,0,0-.539-2.065,1.722,1.722,0,0,0-1.477-.749,1.892,1.892,0,0,0-1.19.413A1.774,1.774,0,0,0,2.352-4.872Zm8.918.812v1.82q0,.7.014.826.07.63.378.63a2.1,2.1,0,0,0,.35-.07.6.6,0,0,1,.21-.028q.532,0,.532.462a.418.418,0,0,1-.175.336.684.684,0,0,1-.441.14,5.455,5.455,0,0,1-.679-.063A5.455,5.455,0,0,0,10.78-.07a6.6,6.6,0,0,0-.812.056,7.193,7.193,0,0,1-.728.07q-.56,0-.56-.476a.415.415,0,0,1,.476-.462,1.89,1.89,0,0,1,.329.042A1.89,1.89,0,0,0,9.814-.8q.336,0,.406-.9V-5.278q-.07-.882-.42-.882a1.446,1.446,0,0,0-.315.049,1.431,1.431,0,0,1-.3.049q-.5,0-.5-.448,0-.476.616-.476a3.487,3.487,0,0,1,.378.014q.448.056.574.056a2.535,2.535,0,0,0,.343-.035,2.535,2.535,0,0,1,.343-.035q.406,0,.406.546a1.485,1.485,0,0,1-.014.168,1.485,1.485,0,0,0-.014.168q-.014.112-.028.868Q11.27-4.662,11.27-4.06Zm-.728-3.668a.754.754,0,0,1-.553-.231.754.754,0,0,1-.231-.553.732.732,0,0,1,.231-.546.766.766,0,0,1,.553-.224.766.766,0,0,1,.553.224.732.732,0,0,1,.231.546.754.754,0,0,1-.231.553A.754.754,0,0,1,10.542-7.728Zm7.21,5.8.028-.9q.014-.574.5-.574t.49.644A4.15,4.15,0,0,1,18.382-.63a1.935,1.935,0,0,1-1.75.812,1.775,1.775,0,0,1-1.6-.714,3.291,3.291,0,0,1-.35-1.764v-3.36q0-.294-.266-.294h-.448A.5.5,0,0,1,13.6-6.1a.486.486,0,0,1-.147-.357A.493.493,0,0,1,13.6-6.8a.446.446,0,0,1,.329-.154h.546q.238,0,.238-.266V-8.666A.477.477,0,0,1,15.26-9.2q.5,0,.5.532v1.5q0,.21.252.21h1.526q.532,0,.532.49,0,.518-.574.518H15.96q-.2,0-.2.294v3.444q0,1.47.966,1.47T17.752-1.932Z" transform="translate(52.5 39.02)" fill="#fd3a2f"/><path d="M2.814-4.06v1.82q0,.7.014.826.07.63.378.63a2.1,2.1,0,0,0,.35-.07.6.6,0,0,1,.21-.028q.532,0,.532.462a.418.418,0,0,1-.175.336.684.684,0,0,1-.441.14A5.455,5.455,0,0,1,3-.007,5.455,5.455,0,0,0,2.324-.07a6.6,6.6,0,0,0-.812.056,7.193,7.193,0,0,1-.728.07q-.56,0-.56-.476A.415.415,0,0,1,.7-.882a1.89,1.89,0,0,1,.329.042A1.89,1.89,0,0,0,1.358-.8q.336,0,.406-.9V-5.278q-.07-.882-.42-.882a1.446,1.446,0,0,0-.315.049,1.431,1.431,0,0,1-.3.049q-.5,0-.5-.448,0-.476.616-.476a3.487,3.487,0,0,1,.378.014q.448.056.574.056a2.535,2.535,0,0,0,.343-.035,2.535,2.535,0,0,1,.343-.035q.406,0,.406.546a1.485,1.485,0,0,1-.014.168,1.485,1.485,0,0,0-.014.168q-.014.112-.028.868Q2.814-4.662,2.814-4.06ZM2.086-7.728a.754.754,0,0,1-.553-.231A.754.754,0,0,1,1.3-8.512a.732.732,0,0,1,.231-.546.766.766,0,0,1,.553-.224.766.766,0,0,1,.553.224.732.732,0,0,1,.231.546.754.754,0,0,1-.231.553A.754.754,0,0,1,2.086-7.728Zm6.5.49A2.291,2.291,0,0,1,10.654-6.16V-7.574a4.655,4.655,0,0,0-.028-.686q-.07-.434-.392-.434a1.671,1.671,0,0,0-.315.042A1.671,1.671,0,0,1,9.6-8.61q-.518,0-.518-.448t.7-.462q.112,0,.406.028l.462.042a3.367,3.367,0,0,0,.364-.028,3.367,3.367,0,0,1,.364-.028q.392,0,.392.56v.154q-.014.042-.028.742,0,.084-.042,1.078-.028.7-.028,1.064v1.372L11.7-2.2a5.648,5.648,0,0,0,.084,1.148.313.313,0,0,0,.336.224,1.075,1.075,0,0,0,.28-.028,2.981,2.981,0,0,1,.308-.028q.518,0,.518.462T12.6.056a3.893,3.893,0,0,1-.427-.035,3.893,3.893,0,0,0-.427-.035q-.042,0-.322.028a1.234,1.234,0,0,1-.294.042q-.378,0-.378-.5v-.07l.014-.238A2.525,2.525,0,0,1,8.61.238,2.847,2.847,0,0,1,6.314-.8a4.088,4.088,0,0,1-.868-2.716A4.07,4.07,0,0,1,6.3-6.223,2.831,2.831,0,0,1,8.582-7.238ZM10.57-2.3a10.25,10.25,0,0,0,.056-1.19,7.49,7.49,0,0,0-.07-1.274,1.762,1.762,0,0,0-.6-1.092,1.966,1.966,0,0,0-1.288-.462,1.8,1.8,0,0,0-1.533.742,3.328,3.328,0,0,0-.553,2.03,3.409,3.409,0,0,0,.574,2.093,1.856,1.856,0,0,0,1.568.763,1.844,1.844,0,0,0,1.26-.441A1.76,1.76,0,0,0,10.57-2.3Zm10.192-1.82a1.723,1.723,0,0,1-.07.651q-.07.119-.406.119H15.834A.39.39,0,0,0,15.6-3.3a.2.2,0,0,0-.056.161,2.518,2.518,0,0,0,.63,1.75,2.023,2.023,0,0,0,1.568.7,2.009,2.009,0,0,0,1.127-.336,1.536,1.536,0,0,0,.665-.854l.126-.406a.435.435,0,0,1,.462-.336.464.464,0,0,1,.518.532,2.024,2.024,0,0,1-.924,1.617,3.365,3.365,0,0,1-2.1.707,2.956,2.956,0,0,1-2.338-.987A3.874,3.874,0,0,1,14.406-3.4a4.076,4.076,0,0,1,.924-2.772,3.038,3.038,0,0,1,2.408-1.064,2.891,2.891,0,0,1,2.17.882A3.088,3.088,0,0,1,20.762-4.116ZM15.68-4.48q0,.2.308.2h3.346q.294,0,.294-.2a1.74,1.74,0,0,0-.56-1.288,1.824,1.824,0,0,0-1.316-.546,2.111,2.111,0,0,0-1.428.567A1.666,1.666,0,0,0,15.68-4.48ZM28.378.182a1.3,1.3,0,0,1-1.414-.994,2.517,2.517,0,0,1-2.24,1.05,2.761,2.761,0,0,1-1.813-.56,1.843,1.843,0,0,1-.679-1.5,1.816,1.816,0,0,1,.994-1.708,2.605,2.605,0,0,1,.651-.273q.273-.063,1.1-.161a4.218,4.218,0,0,0,1.533-.35.9.9,0,0,0,.357-.826,1.107,1.107,0,0,0-.4-.9,1.7,1.7,0,0,0-1.113-.329,2.139,2.139,0,0,0-1.176.35q-.21.14-.21.294,0,.056.126.14a.545.545,0,0,1,.2.476.593.593,0,0,1-.2.462.737.737,0,0,1-.511.182.815.815,0,0,1-.609-.252.85.85,0,0,1-.245-.616A1.628,1.628,0,0,1,23.5-6.678a3.135,3.135,0,0,1,1.883-.56q2.548,0,2.548,2.45V-1.96a5.985,5.985,0,0,0,.028.8q.084.49.476.49.49,0,.49-.9v-.686a.39.39,0,0,1,.434-.448q.462,0,.462.672v.07l-.014.8A1.242,1.242,0,0,1,28.378.182ZM26.824-2.6l.014-.994a1.8,1.8,0,0,1-.651.392,6.528,6.528,0,0,1-1.225.2q-1.6.154-1.6,1.176a1.018,1.018,0,0,0,.385.84,1.624,1.624,0,0,0,1.043.308A2.06,2.06,0,0,0,26.271-1.2,1.889,1.889,0,0,0,26.824-2.6Z" transform="translate(78.5 39.02)" fill="#fff"/><path d="M.518-3.738q0-.49.56-.49H3.262q.56,0,.56.476,0,.5-.56.5H1.078Q.518-3.248.518-3.738Zm4.606,0q0-.49.56-.49H7.868q.56,0,.56.476,0,.5-.56.5H5.684Q5.124-3.248,5.124-3.738ZM15.75-4.172,9.674-1.33V-2.366l4.97-2.254L9.688-6.888,9.674-7.91,15.75-5.068Z" transform="translate(121.5 38.91)" fill="#28cd41"/></g></svg>