<svg xmlns="http://www.w3.org/2000/svg" width="227.825" height="59.316" viewBox="0 0 227.825 59.316"><g transform="translate(-46 -21.237)"><path d="M258.279,22.417a44.719,44.719,0,0,1-5.84,1.616c-2.92.417-4.953,1.929-4.953,3.65a3.72,3.72,0,0,0,2.607,3.858l1.564.678-.1,13.556L251.4,59.384l-1.564.417c-3.128.834-3.91,4.223-1.46,6.152,1.356,1.043,1.825,1.095,10.793.886,5.214-.156,9.7-.261,9.959-.261.313,0,4.119.1,8.5.261,9.333.261,10.532-.1,10.532-3.233,0-1.408-.365-2.033-1.825-3.181-1.668-1.251-9.854-11.784-10.428-13.348-.365-.939,3.6-3.7,6.152-4.328,1.616-.365,2.346-.886,2.868-1.981a3.686,3.686,0,0,0-1.512-4.9c-1.512-.782-14.182-.939-15.59-.156-.886.469-.991.156-1.147-5.788-.156-6.152-.209-6.309-1.616-7.56C263.285,20.853,262.816,20.853,258.279,22.417Zm6.517.626c.834.73.939,1.825.939,10.949V44.055l1.3-.834,1.251-.834L267.2,40.875c-.939-1.251-1.043-1.668-.521-2.816.939-2.086,2.816-2.5,9.646-2.138,7.2.365,8.186.73,8.186,3.076,0,2.086-.782,2.972-2.659,2.972-1.2,0-4.588,2.086-6.935,4.223-.626.574,7.821,12.2,10.532,14.391,2.5,2.086,2.868,3.806,1.043,5.058-1.616,1.147-14.756,1.2-16.372.1-.886-.626-1.147-.626-2.033,0-.73.574-2.972.73-9.281.73-7.977,0-9.959-.313-10.9-1.773-1.147-1.721.678-4.484,2.972-4.484h1.3V31.542l-1.825-.73c-2.555-1.095-3.024-3.181-1.095-4.849a6.051,6.051,0,0,1,3.076-1.251,20.5,20.5,0,0,0,5.058-1.251C261.512,22,263.493,21.9,264.8,23.043Z" transform="translate(-96.164 0)"/><path d="M261.169,28.544c-1.981.626-4.536,1.3-5.579,1.512-1.095.156-1.981.521-1.981.782a4.711,4.711,0,0,0,1.981,1.408l1.929.939.156,14.234c.052,7.821-.052,14.964-.313,15.9-.365,1.356-.73,1.721-2.19,1.929a3.322,3.322,0,0,0-1.981.886c-.156.521,1.773.678,8.5.678s8.655-.156,8.5-.678a1.707,1.707,0,0,0-1.251-.782c-1.877-.365-2.294-1.616-2.294-7.091V53l1.043,1.3c.574.73,2.451,3.389,4.223,5.892,2.4,3.441,3.024,4.745,2.607,5.266-.313.365-.417.834-.209.991.156.209,3.493.365,7.352.365h7.091l-2.138-1.825c-1.929-1.668-11.419-14.026-11.888-15.538-.1-.365,1.46-1.981,3.546-3.6,2.868-2.294,4.171-3.024,5.475-3.024,1.2,0,1.668-.209,1.564-.678-.156-.417-2.138-.678-6.882-.782-5.214-.1-6.622,0-6.465.521.156.365.991.73,1.877.834,2.607.261,2.033,1.564-2.242,5.214-2.138,1.773-4.067,3.337-4.275,3.389s-.521-5.266-.678-11.888c-.209-10.115-.365-11.992-1.043-12.044A21.325,21.325,0,0,0,261.169,28.544Z" transform="translate(-99.158 -2.946)"/><path d="M283.194,91.3c-.052.886.209,1.46.834,1.668a6.739,6.739,0,0,1,1.877,1.147c.626.469.313-.156-.678-1.668A21.744,21.744,0,0,0,283.455,90C283.35,90,283.246,90.574,283.194,91.3Z" transform="translate(-113.519 -32.91)"/><path d="M48.555,31.607a4.175,4.175,0,0,0-2.086,2.138c-.886,2.138.209,4.119,2.555,4.849l1.668.469V64.4h-1.2c-1.564,0-3.493,2.033-3.493,3.7a4.26,4.26,0,0,0,1.043,2.451c.991,1.095,1.564,1.147,8.29,1.147,6.517,0,7.3-.1,8.134-1.043A3.726,3.726,0,0,0,60.756,64.4H59.035V57.1c0-4.015.156-7.3.417-7.3.209.052,4.119,5.005,8.707,11,4.536,6.048,8.968,11.314,9.75,11.731,1.773.939,4.536.939,5.788,0,1.668-1.251,1.929-3.963,1.929-18.927,0-14.391,0-14.756,1.043-14.756,2.816,0,4.223-4.588,2.033-6.57-.991-.886-1.877-.991-8.238-.886-6.57.1-7.143.209-7.977,1.251a3.766,3.766,0,0,0,2.816,6.2h1.46v8.5l-2.92-3.6C65.5,33.432,63.832,31.712,62.163,31.347,59.608,30.877,50.119,31.034,48.555,31.607Zm17.936,4.38c1.668,1.981,4.9,5.944,7.2,8.759l4.119,5.11V38.333H76.293c-1.721,0-4.223-1.773-4.223-3.076a4.317,4.317,0,0,1,.834-2.033c.73-1.095,1.147-1.147,7.612-1.147,5.631,0,7.039.156,7.821.886,1.929,1.721.834,4.64-1.929,5.162l-1.825.313v32.17l-1.356,1.043c-3.337,2.659-4.745,1.512-14.912-11.784-4.9-6.413-9.124-11.784-9.385-11.94-.209-.156-.417,3.6-.417,8.342v8.655h1.46c3.181,0,4.9,3.076,2.868,5.318-.73.834-1.721.939-7.352.939-7.247,0-8.447-.469-8.447-3.181a3.374,3.374,0,0,1,3.233-3.076c.886,0,.939-.886.939-13.243V38.438l-1.408-.365a5.646,5.646,0,0,1-2.086-.886c-.939-.782-.834-3.024.209-4.171.782-.886,1.616-.939,8.186-.834l7.3.156Z" transform="translate(0 -4.706)"/><path d="M52.356,37.365c-.782.73-.313,1.2,1.147,1.2,3.128,0,3.181.209,3.181,15.9,0,14.182,0,14.286-1.147,15.068a4.748,4.748,0,0,1-2.346.834c-.678,0-1.2.209-1.2.521s2.451.521,6.257.521S64.5,71.2,64.5,70.891s-.782-.521-1.721-.521a5.618,5.618,0,0,1-2.868-.834c-1.147-.782-1.147-.939-1.147-13.3,0-6.83.156-12.461.417-12.461.209,0,.939.834,1.668,1.773.73.991,5.788,7.56,11.21,14.651C81.4,72.3,82.075,73.029,83.535,72.872l1.564-.156.261-16.685.261-16.685,1.564-.469c.886-.261,1.877-.521,2.242-.626a.5.5,0,0,0,.365-.73c-.209-.313-2.868-.521-6.309-.521-4.953,0-5.944.156-5.944.782,0,.521.521.782,1.721.782,3.441,0,3.545.261,3.389,10.637l-.156,9.333-8.5-10.428C69.3,42.318,65.13,37.469,64.713,37.313,63.618,36.9,52.773,36.9,52.356,37.365Z" transform="translate(-2.862 -7.544)"/><path d="M409.693,32.482C406.46,33.525,405,35.4,405,38.687c0,1.46.417,2.294,1.773,3.65l1.721,1.721-1.2,1.147a3.809,3.809,0,0,0-.834,4.484c.626.991,2.868,1.616,4.38,1.147,2.242-.626,5.058-3.024,6.57-5.631,1.825-3.128,1.929-7.352.209-9.8C416,33.108,412.091,31.648,409.693,32.482Zm5.214,1.46c3.337,1.721,4.223,6.882,1.877,10.9-2.451,4.223-7.4,6.726-9.333,4.745-1.3-1.251-1.095-2.242.886-4.223,1.773-1.773,1.773-1.825.678-2.242a4.994,4.994,0,0,1-3.233-4.849C405.782,34.151,410.735,31.8,414.907,33.942Z" transform="translate(-171.818 -5.268)"/><path d="M412.145,38.88a3.123,3.123,0,0,0-.521,4.275,3.706,3.706,0,0,0,2.242.626c3.546,0,3.65,2.033.209,4.8-1.981,1.616-2.555,2.5-1.512,2.5.834,0,4.693-3.7,5.527-5.266a5.009,5.009,0,0,0-.782-6.257C415.586,37.889,413.918,37.629,412.145,38.88Z" transform="translate(-174.688 -8.069)"/><path d="M324.567,47.54c-1.251,1.3-1.512,1.877-1.251,3.024.417,1.616,2.086,3.233,3.389,3.233.574,0,2.086,2.242,4.588,6.882,4.119,7.612,8.5,16.841,8.5,17.884,0,.886-1.2,1.3-3.858,1.3a5.37,5.37,0,0,0-5.266,3.128c-2.346,4.588.939,9.385,6.413,9.385,5.318,0,7.091-1.825,10.741-11.158,1.616-4.015,5.005-11.679,7.56-17,4.067-8.5,4.745-9.7,6.1-10.115,2.4-.678,3.024-1.095,3.806-2.5a3.413,3.413,0,0,0-1.512-4.849c-2.086-1.043-13.5-1.095-15.538-.052-1.251.626-1.564.626-2.451,0-.73-.574-3.128-.73-10.324-.73h-9.333Zm21.534.313c.886.782.991.782,1.773,0,.73-.678,2.086-.834,7.873-.834a41.8,41.8,0,0,1,8.082.521c2.138,1.2.678,5.735-1.877,5.735a4.22,4.22,0,0,0-1.929.626c-1.095.834-10.48,20.647-13.452,28.312a35.111,35.111,0,0,1-3.337,6.987,7.7,7.7,0,0,1-9.75,1.46c-2.5-1.668-3.337-3.65-2.607-6.1.834-2.868,2.242-3.858,5.944-4.171,2.086-.156,3.285-.521,3.65-1.095.365-.626-.626-3.128-4.171-10.428-5.892-11.992-7.977-15.59-9.02-15.59a3.2,3.2,0,0,1-2.242-5.318c.73-.834,1.825-.939,10.48-.939C343.7,47.018,345.319,47.175,346.1,47.853Z" transform="translate(-132.68 -11.827)"/><path d="M329.39,52.37c-.678.678-.365,1.095,1.2,1.356,1.981.417,3.285,2.451,9.907,15.746,6.83,13.713,6.83,15.173.209,16.007-3.911.417-4.9,1.2-4.9,3.546,0,2.033,1.512,3.128,4.328,3.128,3.441,0,4.588-1.251,7.3-8.342,1.3-3.285,3.441-8.342,4.8-11.21s3.65-7.665,5.058-10.689c3.024-6.465,3.6-7.143,6.257-7.873,1.2-.313,1.981-.782,1.825-1.147-.261-.834-12.3-1.147-13.087-.365-.678.678.469,1.564,2.086,1.564a3.866,3.866,0,0,1,2.033.73c.938.678.938.886.261,2.972-1.095,3.233-5.37,11.627-6,11.627-.73.052-7.2-13.191-6.83-14.078a4.746,4.746,0,0,1,2.138-1.46c1.043-.469,1.773-1.043,1.564-1.356C347.169,51.953,329.963,51.8,329.39,52.37Z" transform="translate(-135.469 -14.728)"/><path d="M365.224,56.735c0,.313-.678.886-1.512,1.251l-1.512.626,2.19,4.693,2.19,4.64,1.929-4.484c1.043-2.5,1.929-4.64,1.929-4.8s-.626-.313-1.408-.313a4.507,4.507,0,0,1-2.607-1.147C365.745,56.579,365.224,56.37,365.224,56.735Zm1.3,1.616a2.257,2.257,0,0,0,1.616.521c.678,0,1.251.209,1.251.469,0,1.043-2.763,6.361-3.128,5.944a23.6,23.6,0,0,1-1.721-3.337l-1.3-2.972,1.147-.521C365.85,57.726,366.163,57.726,366.528,58.351Z" transform="translate(-151.334 -16.903)"/><path d="M437.344,46.773c-7.508,2.346-10.9,11.21-6.152,16.268l1.043,1.095-1.512.73c-1.408.678-1.46.886-1.616,4.8-.156,4.9.469,6.2,3.963,7.769,1.981.834,3.493,1.095,7.665,1.095,4.588,0,5.579-.156,8.5-1.512,7.769-3.493,10.167-11,5.579-17.206-1.043-1.408-1.095-1.721-.469-2.607.886-1.2.939-5.944.156-7.769C453.142,46.46,443.288,44.948,437.344,46.773Zm12.983.834c2.92.886,3.858,2.086,4.119,5.37.209,2.5.052,2.972-1.095,4.171-1.3,1.3-1.3,1.356-.365,1.877,2.711,1.46,4.119,8.6,2.4,11.888a14.415,14.415,0,0,1-6.048,5.37c-1.825.939-3.441,1.251-7.3,1.408-5.892.261-8.968-.469-11.054-2.5-1.3-1.3-1.46-1.825-1.46-4.9,0-3.858.73-5.005,3.181-5.005,1.46,0,3.6,1.512,3.6,2.555a7.08,7.08,0,0,0,1.356,2.086c1.2,1.408,1.668,1.616,4.119,1.616,1.877,0,2.972-.261,3.441-.834.886-1.095-.156-1.929-4.171-3.128-4.432-1.356-7.508-3.076-9.333-5.162-1.46-1.668-1.668-2.242-1.668-5.005a12.407,12.407,0,0,1,.73-4.536c1.408-2.659,4.953-5.11,8.655-5.892A30.027,30.027,0,0,1,450.327,47.607Zm-6.361,22c1.095.834.209,1.408-2.19,1.408-1.877,0-2.5-.261-3.6-1.616a7.089,7.089,0,0,1-1.356-2.033C436.823,66.847,442.975,68.776,443.966,69.61Z" transform="translate(-183.306 -11.842)"/><path d="M440.6,52.726c-3.754,1.356-6,4.067-6,7.3,0,3.806,1.773,5.37,8.864,7.977,5.475,2.086,6.778,2.972,6.778,4.8,0,3.6-3.858,5.214-9.02,3.754-1.564-.417-2.346-1.095-3.806-3.389-1.043-1.564-2.138-2.763-2.451-2.659-.834.261-1.095,4.223-.365,5.527.834,1.616,5.683,2.816,10.011,2.555,6.778-.521,11.888-4.275,11.888-8.864,0-4.275-1.825-6.1-8.082-8.238a40.119,40.119,0,0,1-5.84-2.346c-2.294-1.512-1.251-4.64,1.825-5.475a6.441,6.441,0,0,1,7.925,3.7c1.095,2.607,2.19,1.929,1.981-1.2-.156-2.711-.209-2.763-2.242-3.337C449.52,52.048,442.69,52,440.6,52.726Z" transform="translate(-185.784 -14.823)"/><path d="M452.92,59.717c-.469.574-.156.886,1.616,1.616,2.868,1.147,5.11,1.825,5.11,1.512A7.223,7.223,0,0,0,457.3,59.3C455.84,58.727,453.546,58.935,452.92,59.717Zm4.328.574c.574.417.886.939.678,1.095-.417.417-4.015-.782-4.015-1.408C453.911,59.248,456.153,59.457,457.248,60.291Z" transform="translate(-194.659 -18.061)"/><path d="M139.19,47.89A17.91,17.91,0,0,0,126,56.806a15.414,15.414,0,0,0-.365,13.035,18.966,18.966,0,0,0,8.342,8.082c2.659,1.3,3.546,1.408,8.447,1.46,4.849,0,5.84-.156,8.342-1.356a15.917,15.917,0,0,0,8.395-8.082c1.512-3.024,1.616-3.65,1.408-7.2-.313-4.588-1.721-7.456-5.423-10.689C151.13,48.516,145.394,47.056,139.19,47.89ZM149.2,49.506c4.536,1.564,8.812,5.683,10.167,9.75,4.275,12.879-11.158,24.193-24.61,18.04-8.864-4.015-12.253-13.191-7.717-20.908C131.056,49.558,140.65,46.586,149.2,49.506Z" transform="translate(-37.504 -12.647)"/><path d="M141.321,53.718c-10.48,2.659-14.7,13.087-8.238,20.387,2.972,3.389,6.2,4.849,11.262,5.058,6.935.313,12.149-2.4,14.912-7.821,1.616-3.128,1.251-8.29-.73-11.314a15.842,15.842,0,0,0-7.612-5.788A22.55,22.55,0,0,0,141.321,53.718Zm6.2,1.877c2.451,1.616,4.015,5.162,4.275,9.594.417,7.247-2.19,12.514-6.152,12.514-2.138,0-4.849-2.555-6.257-5.84-.991-2.294-1.147-3.389-.939-7.143.209-4.588,1.043-6.935,3.076-8.968C142.781,54.5,145.7,54.448,147.526,55.595Z" transform="translate(-40.209 -15.398)"/><path d="M152.831,60.942c-1.668,1.929-2.138,3.6-2.138,7.665-.052,3.389.156,4.64,1.095,6.413,3.181,6.1,7.039,4.015,7.717-4.171a11.726,11.726,0,0,0-2.763-9.333C155.125,59.848,153.926,59.691,152.831,60.942Zm4.536,2.451c1.356,1.825,1.721,8.447.626,11.471-1.356,3.963-3.337,3.858-5.423-.209-1.981-3.806-1.564-10.637.73-13.191.73-.782.991-.782,1.929-.209A13.74,13.74,0,0,1,157.367,63.393Z" transform="translate(-50.103 -18.608)"/><path d="M205.419,48.346c-.991.678-2.294,1.668-2.92,2.086A13.264,13.264,0,0,1,198.64,52c-3.389.886-4.223,1.721-4.223,4.119,0,2.294.73,3.285,2.763,3.7l1.564.365-.156,5.788c-.156,5.527-.209,5.788-1.3,6.1A3.9,3.9,0,0,0,194,75.928c0,3.128.991,3.441,11.366,3.441,8.864,0,9.02,0,10.272-1.3a3.988,3.988,0,0,0,1.3-2.346c0-1.356-2.242-3.65-3.545-3.65-.834,0-1.043-.521-1.356-2.763-.73-6.2-.209-10.689.991-8.707.574.939,4.119,1.564,6.152,1.043,5.631-1.251,7.3-8.082,2.972-12.253-1.929-1.825-6.2-2.4-8.655-1.147-1.408.73-1.616.73-2.763-.209C209.121,46.678,207.556,46.782,205.419,48.346Zm4.953.417c1.147,1.147,1.2,1.2,3.233.261,2.346-1.043,4.484-1.2,6.1-.365,3.546,1.825,5.11,5.37,3.806,8.5-1.616,3.806-7.039,5.266-10.115,2.659-.939-.782-1.721-1.095-1.929-.782a47.1,47.1,0,0,0-.209,7.039c.052,6.309.1,6.517,1.2,6.517A3.387,3.387,0,0,1,215.9,75.72c0,2.763-1.3,3.128-10.689,3.128-6.726,0-8.6-.156-9.542-.834-2.19-1.512-1.147-4.64,1.721-5.214l1.825-.313V65.709c0-4.275-.209-6.622-.521-6.413-.574.365-2.659-.626-3.233-1.512a3.362,3.362,0,0,1,.574-3.91,7.436,7.436,0,0,1,3.285-1.3,9.152,9.152,0,0,0,4.484-2.138c1.877-1.668,3.806-2.763,4.953-2.816C208.964,47.564,209.694,48.086,210.372,48.763Z" transform="translate(-70.833 -12.373)"/><path d="M207.781,55.144a11.578,11.578,0,0,1-4.38,2.4c-3.024.521-3.7.782-3.493,1.408.1.365.782.678,1.564.782,2.451.313,2.711,1.2,2.659,9.385-.1,8.082-.1,8.186-2.972,8.812-3.65.782-1.3,1.2,6.622,1.2,8.082,0,10.793-.469,6.987-1.251-2.972-.574-3.024-.782-3.024-9.124,0-6.048.156-7.873.834-8.812,1.095-1.564,2.086-1.46,4.275.469,1.564,1.356,2.138,1.564,3.7,1.3,5.423-.834,4.64-8.134-.886-8.134-1.929,0-5.631,2.033-6.622,3.6-.73,1.251-1.3.469-1.3-1.773C211.744,52.433,211.118,52.381,207.781,55.144Z" transform="translate(-73.457 -15.26)"/></g></svg>