<svg xmlns="http://www.w3.org/2000/svg" width="226.633" height="44.029" viewBox="0 0 226.633 44.029"><g transform="translate(-7 -18)"><g transform="translate(6.633 -34.169)"><path d="M59.8,62.5c-3.8,2.1-5.7,6.2-6.2,13.7-1,13,3.2,19.8,12.2,19.8C75.4,96,79,91.3,79,79.2c0-12-3.4-17.2-11.7-17.9C64.2,61.1,61.5,61.5,59.8,62.5Zm10.8,6c2.1,3.2,2.3,14.9.4,19.4-2.7,6.6-9.4,4.4-10.6-3.5-.8-5.7.1-15.1,1.7-17C64,65.1,68.7,65.7,70.6,68.5Z"/><path d="M91.1,63c-8.5,3.9-8.9,6.7-2.3,14.7,8.2,10,7.7,9.1,5.8,11.2a11.387,11.387,0,0,1-5.4,2.6c-5.1.9-5.6,1.4-3.7,3.5,3.4,3.8,17.5-2.2,17.5-7.4,0-1.4-2.6-5.6-6.2-10.1l-6.2-7.8L92.8,68A16.087,16.087,0,0,1,99,65.5c4.2-.7,4.8-1.3,2.8-3.3C100.1,60.5,96.1,60.8,91.1,63Z"/><path d="M112.5,62.2c-.3.8-.4,8.6-.3,17.3l.3,16h6v-34l-2.8-.3C114.1,61,112.8,61.4,112.5,62.2Z"/><path d="M129,78.5V96h3c2.9,0,2.9-.1,3.2-6.3l.3-6.2,3.5-.3c8.3-.7,11-3.5,11-11.2,0-7.2-5.6-10.8-17.2-11H129Zm11.8-10.9A5.182,5.182,0,0,1,143,72c0,4.6-1,6-4.1,6-2.9,0-2.9,0-2.9-6C136,65.5,136.8,64.8,140.8,67.6Z"/><path d="M156.6,63.5C155,66,155,66,158,66h2.9l.3,14.7.3,14.8h6l.3-14.8c.2-13.8.4-14.7,2.2-14.7,1.6,0,4-2.6,4-4.4,0-.3-3.5-.6-7.9-.6C158.8,61,158.1,61.2,156.6,63.5Z"/><path d="M183,69.4c0,7.3-.2,8.1-2.7,10.4l-2.8,2.6,2.5.6c2.3.5,2.5,1.1,2.8,6.8l.3,6.2H191c7.9,0,8,0,8-2.5,0-2.3-.3-2.5-5-2.5h-5V83h5c4.3,0,5-.3,5-1.9,0-1.7-.8-2-5.2-2.3l-5.3-.3v-12l5.7-.5c5.4-.5,5.6-.6,4.2-2.5-1.2-1.6-2.7-2-8.4-2h-7Z"/><path d="M209.7,61.6c-.4.4-.7,8.3-.7,17.6V96h9c5,0,9-.3,9-.8-.1-2.4-3-4.2-6.8-4.2h-4.1l-.3-14.8-.3-14.7-2.5-.3C211.6,61,210.1,61.2,209.7,61.6Z"/><path d="M4,87.9V96H45V93.5c0-2.3-.3-2.5-2.7-1.8-9.6,2.7-23.5-1.3-36-10.3L4,79.8Z"/></g><g transform="translate(6.633 -34.169)"><path d="M9.648,0C14.977,0,19.3,10.666,19.3,23.824s-4.32,23.824-9.648,23.824S0,36.982,0,23.824,4.32,0,9.648,0Z" transform="translate(0.367 81.212) rotate(-73.348)" fill="#b1b1b1"/><path d="M5.64,0c3.115,0,5.64,6.235,5.64,13.927S8.755,27.853,5.64,27.853,0,21.618,0,13.927,2.525,0,5.64,0Z" transform="translate(10.552 79.413) rotate(-73.348)" fill="none" stroke="#fff" stroke-width="1"/><path d="M39.083,62.064c-.85,4.357-8.922,12.448-13.341,15.176-1.231.76-5.969-14.424-5.119-18.78s5.673-7.081,10.77-6.086S39.934,57.708,39.083,62.064Z" fill="#fff"/><path d="M25.2,56.6C20.7,59.7,23.7,68,29.4,68,32,68,36,63.9,36,61.2c0-1.3-.2-1.2-1.3.3-1,1.3-2.1,1.6-4.1,1.1-3.2-.8-4.4-3.2-2.7-5.7C29.3,54.6,28.2,54.5,25.2,56.6Z" fill="#4e4e4e"/></g></g></svg>