<svg xmlns="http://www.w3.org/2000/svg" width="190.097" height="34.011" viewBox="0 0 190.097 34.011"><g transform="translate(-23.529 -22.26)"><path d="M2.529,27V6.766H9.584q3.691,0,5.271,1.237t1.579,4.136a6.387,6.387,0,0,1-2.112,5.106A8.761,8.761,0,0,1,8.408,19.07H6.658V27ZM6.658,16.295h.82a5.3,5.3,0,0,0,3.411-1,3.313,3.313,0,0,0,1.251-2.728q0-3.021-3.842-3.021H6.658ZM21.381,27V6.766h4.211V27Zm10.963,0V6.766h4.211V24.129h9.119V27Zm15.748,0L55.968,6.766h4.211L68.054,27h-4.32l-2.105-5.4H53.261L51.155,27ZM54.3,18.906h6.289L57.444,10.84ZM77.622,27V9.541H70.376V6.766H89.093V9.541H81.847V27ZM93.6,27V6.766H106.25V9.541H97.814v5.646h6.918v2.707H97.814v6.234h9.078V27Zm17.362-.178V23.35a14.974,14.974,0,0,0,5.592,1.367,4.09,4.09,0,0,0,2.563-.725,2.357,2.357,0,0,0,.937-1.969,2.444,2.444,0,0,0-.588-1.661,8.943,8.943,0,0,0-2.229-1.606L115.887,18a13.316,13.316,0,0,1-3.842-2.933,5.087,5.087,0,0,1-1.121-3.274,4.952,4.952,0,0,1,1.839-4.02,7.393,7.393,0,0,1,4.86-1.518,24.621,24.621,0,0,1,5.455.7V10.2a15.053,15.053,0,0,0-4.908-1.162,3.672,3.672,0,0,0-2.235.622,1.939,1.939,0,0,0-.841,1.634,2.076,2.076,0,0,0,.588,1.463A9.846,9.846,0,0,0,117.9,14.3l1.449.807a14.14,14.14,0,0,1,4.033,3.021,5.206,5.206,0,0,1,1.107,3.363,5.25,5.25,0,0,1-2.092,4.416,9.293,9.293,0,0,1-5.77,1.6A27.761,27.761,0,0,1,110.965,26.822ZM129.776,27V6.766h4.211V24.129h9.119V27Zm15.748,0L153.4,6.766h4.211L165.485,27h-4.32l-2.105-5.4h-8.367L148.586,27Zm6.207-8.094h6.289l-3.145-8.066ZM170.036,27V6.766h4.211V24.129h9.119V27ZM188,27V6.766h4.211V27Z" transform="translate(21 16)" fill="#1a1818"/><path d="M10.078-.432a9.166,9.166,0,0,1-3.757.7,5.582,5.582,0,0,1-4.153-1.5A5.7,5.7,0,0,1,.681-5.42a5.654,5.654,0,0,1,1.5-4.215,5.833,5.833,0,0,1,4.274-1.476,15.136,15.136,0,0,1,3.523.417v1.765a10.444,10.444,0,0,0-3.325-.7A3.289,3.289,0,0,0,4.006-8.536a4.612,4.612,0,0,0-.93,3.087,4.383,4.383,0,0,0,1,3.062,3.568,3.568,0,0,0,2.78,1.1,7.213,7.213,0,0,0,3.223-.806ZM12.941,0V-10.84H15.2v9.3h4.885V0Zm8.437,0L25.6-10.84h2.256L32.071,0H29.757L28.629-2.893H24.146L23.018,0ZM24.7-4.336h3.369L26.387-8.657ZM33.9-.1v-1.86a8.022,8.022,0,0,0,3,.732,2.191,2.191,0,0,0,1.373-.388,1.262,1.262,0,0,0,.5-1.055,1.309,1.309,0,0,0-.315-.89,4.791,4.791,0,0,0-1.194-.861l-.725-.4A7.134,7.134,0,0,1,34.48-6.39a2.725,2.725,0,0,1-.6-1.754,2.653,2.653,0,0,1,.985-2.153,3.96,3.96,0,0,1,2.6-.813,13.19,13.19,0,0,1,2.922.374V-9a8.064,8.064,0,0,0-2.629-.623,1.967,1.967,0,0,0-1.2.333,1.039,1.039,0,0,0-.45.875,1.112,1.112,0,0,0,.315.784,5.274,5.274,0,0,0,1.187.828l.776.432a7.575,7.575,0,0,1,2.161,1.619,2.789,2.789,0,0,1,.593,1.8A2.813,2.813,0,0,1,40.024-.586a4.978,4.978,0,0,1-3.091.857A14.872,14.872,0,0,1,33.9-.1Zm9.469,0v-1.86a8.022,8.022,0,0,0,3,.732,2.191,2.191,0,0,0,1.373-.388,1.262,1.262,0,0,0,.5-1.055,1.309,1.309,0,0,0-.315-.89,4.791,4.791,0,0,0-1.194-.861l-.725-.4A7.134,7.134,0,0,1,43.949-6.39a2.725,2.725,0,0,1-.6-1.754,2.653,2.653,0,0,1,.985-2.153,3.96,3.96,0,0,1,2.6-.813,13.19,13.19,0,0,1,2.922.374V-9a8.064,8.064,0,0,0-2.629-.623,1.967,1.967,0,0,0-1.2.333,1.039,1.039,0,0,0-.45.875,1.112,1.112,0,0,0,.315.784,5.274,5.274,0,0,0,1.187.828l.776.432a7.575,7.575,0,0,1,2.161,1.619,2.789,2.789,0,0,1,.593,1.8A2.813,2.813,0,0,1,49.494-.586,4.978,4.978,0,0,1,46.4.271,14.872,14.872,0,0,1,43.371-.1ZM53.448,0V-10.84H55.7V0Zm14.6-.432a9.166,9.166,0,0,1-3.757.7,5.582,5.582,0,0,1-4.153-1.5A5.7,5.7,0,0,1,58.647-5.42a5.654,5.654,0,0,1,1.5-4.215,5.833,5.833,0,0,1,4.274-1.476,15.136,15.136,0,0,1,3.523.417v1.765a10.444,10.444,0,0,0-3.325-.7,3.289,3.289,0,0,0-2.644,1.088,4.612,4.612,0,0,0-.93,3.087,4.383,4.383,0,0,0,1,3.062,3.568,3.568,0,0,0,2.78,1.1,7.213,7.213,0,0,0,3.223-.806ZM69.72,0l4.219-10.84H76.2L80.414,0H78.1L76.971-2.893H72.489L71.361,0Zm3.325-4.336h3.369L74.73-8.657ZM82.852,0V-10.84h2.256v9.3h4.885V0ZM96.367-.1v-1.86a8.022,8.022,0,0,0,3,.732,2.191,2.191,0,0,0,1.373-.388,1.262,1.262,0,0,0,.5-1.055,1.309,1.309,0,0,0-.315-.89,4.791,4.791,0,0,0-1.194-.861L99-4.819A7.134,7.134,0,0,1,96.946-6.39a2.725,2.725,0,0,1-.6-1.754A2.653,2.653,0,0,1,97.33-10.3a3.96,3.96,0,0,1,2.6-.813,13.19,13.19,0,0,1,2.922.374V-9a8.064,8.064,0,0,0-2.629-.623,1.967,1.967,0,0,0-1.2.333,1.039,1.039,0,0,0-.45.875,1.112,1.112,0,0,0,.315.784,5.274,5.274,0,0,0,1.187.828l.776.432a7.575,7.575,0,0,1,2.161,1.619,2.789,2.789,0,0,1,.593,1.8A2.813,2.813,0,0,1,102.49-.586,4.978,4.978,0,0,1,99.4.271,14.872,14.872,0,0,1,96.367-.1Zm12.765.1V-9.353H105.25V-10.84h10.027v1.487H111.4V0Zm8.473-10.84h2.256V-4.2a3.871,3.871,0,0,0,.52,2.274,1.952,1.952,0,0,0,1.677.7,1.861,1.861,0,0,0,1.6-.667,3.65,3.65,0,0,0,.494-2.146v-6.8h1.963v6.658a7.049,7.049,0,0,1-.286,2.289,3.01,3.01,0,0,1-1.04,1.366,4.423,4.423,0,0,1-2.776.8,4.89,4.89,0,0,1-3-.85,3.156,3.156,0,0,1-1.095-1.388,6.393,6.393,0,0,1-.311-2.238ZM129.638,0V-10.84H134.3a5.233,5.233,0,0,1,3.86,1.337,5.212,5.212,0,0,1,1.34,3.856,5.776,5.776,0,0,1-1.421,4.164A5.247,5.247,0,0,1,134.106,0Zm2.256-1.538h1.685a3.37,3.37,0,0,0,2.655-.985,4.4,4.4,0,0,0,.875-2.992,4.492,4.492,0,0,0-.7-2.585,2.556,2.556,0,0,0-1.165-.981,5.615,5.615,0,0,0-1.985-.271h-1.362ZM142.433,0V-10.84h2.256V0Zm10.627.271a5.2,5.2,0,0,1-3.948-1.553,5.75,5.75,0,0,1-1.479-4.138,5.722,5.722,0,0,1,1.487-4.153,5.323,5.323,0,0,1,4.014-1.538,5.316,5.316,0,0,1,4,1.538,5.683,5.683,0,0,1,1.49,4.131,5.739,5.739,0,0,1-1.49,4.182A5.426,5.426,0,0,1,153.059.271Zm.029-1.494a2.71,2.71,0,0,0,2.3-1.139,5.068,5.068,0,0,0,.846-3.087,4.962,4.962,0,0,0-.85-3.032,2.668,2.668,0,0,0-2.249-1.143,2.672,2.672,0,0,0-2.26,1.143,5.018,5.018,0,0,0-.846,3.054,5.057,5.057,0,0,0,.842,3.051A2.621,2.621,0,0,0,153.089-1.223Z" transform="translate(55 56)" fill="#766d6d"/></g></svg>