<svg xmlns="http://www.w3.org/2000/svg" width="227.358" height="33.196" viewBox="0 0 227.358 33.196"><g transform="translate(-6.26 -26.904)"><path d="M5.408-2.73a.894.894,0,0,0,.117.507q.117.169.611.169H8.554q1.222,0,2.119-.078a4.237,4.237,0,0,0,1.6-.442A3.693,3.693,0,0,0,13.52-3.666,9.55,9.55,0,0,0,14.612-5.72h.416l-.754,4.264q-1.092-.052-2.873-.078T7.046-1.56q-2.574,0-4.264.026T.26-1.456V-1.82l1.586-.234a4.879,4.879,0,0,0,.923-.182.745.745,0,0,0,.416-.3A.976.976,0,0,0,3.3-3.042V-16.3a.849.849,0,0,0-.169-.637,1.019,1.019,0,0,0-.507-.195l-2-.338v-.416q1.4.078,4.212.078t3.484-.078v.416l-2.236.338a1.12,1.12,0,0,0-.533.169q-.143.117-.143.663ZM18.786-7.568l-1.76,5.1a.8.8,0,0,0-.044.506q.066.176.66.22l1.54.11v.352q-.22-.022-.891-.033T16.476-1.32q-1.144,0-1.815.011t-.891.033v-.352l1.386-.11a1.145,1.145,0,0,0,1.012-.814L21.1-15.84h.638L26.6-2.706a1.642,1.642,0,0,0,.286.506,1.219,1.219,0,0,0,.484.242l1.21.374v.33q-1.122-.066-2.882-.066h-1.1q-.506,0-.957.022t-.825.044v-.33l1.452-.22a3.228,3.228,0,0,0,.484-.1.378.378,0,0,0,.231-.154.371.371,0,0,0,.033-.242,1.741,1.741,0,0,0-.11-.363L23.12-7.568Zm4.158-.484L20.9-13.728,18.962-8.052ZM33.878-17.81q1.274,0,2.132-.013t1.3-.039L41-18.07a3.25,3.25,0,0,1,.4-.026h.4a6.717,6.717,0,0,1,2.5.416,4.993,4.993,0,0,1,1.7,1.079,3.966,3.966,0,0,1,.962,1.534,5.373,5.373,0,0,1,.3,1.755,4.649,4.649,0,0,1-.39,1.9A4.832,4.832,0,0,1,45.8-9.867a5.057,5.057,0,0,1-1.612,1.04A5.209,5.209,0,0,1,42.2-8.45a3.087,3.087,0,0,1-2.5-1.014l.156-.156a4.115,4.115,0,0,0,1.4.234,3.951,3.951,0,0,0,1.469-.273,3.586,3.586,0,0,0,1.2-.767,3.478,3.478,0,0,0,.793-1.2,4.1,4.1,0,0,0,.286-1.56,4.262,4.262,0,0,0-.234-1.4,3.744,3.744,0,0,0-.7-1.222,4.159,4.159,0,0,0-1.183-.936,4.825,4.825,0,0,0-1.677-.52,8.693,8.693,0,0,0-1.222-.078,3.655,3.655,0,0,0-1.378.208V-3.146a.77.77,0,0,0,.169.559,1.647,1.647,0,0,0,.741.3l1.9.416v.416q-1.092-.052-1.911-.078T38.116-1.56Q37-1.56,34.4-1.482V-1.9l1.456-.208a.753.753,0,0,0,.52-.286,1.394,1.394,0,0,0,.13-.7V-15.5a1.378,1.378,0,0,0-.611-1.326,5.755,5.755,0,0,0-2.015-.494ZM55.488-.968A8.526,8.526,0,0,1,52.43-1.5,7.12,7.12,0,0,1,50.043-2.97,6.613,6.613,0,0,1,48.492-5.2a7.063,7.063,0,0,1-.55-2.8,7.18,7.18,0,0,1,.561-2.838,6.981,6.981,0,0,1,1.584-2.31,7.422,7.422,0,0,1,2.475-1.562A8.756,8.756,0,0,1,55.8-15.29a7.376,7.376,0,0,1,2.816.539,7.208,7.208,0,0,1,2.31,1.5,6.969,6.969,0,0,1,1.562,2.288,7.249,7.249,0,0,1,.572,2.893,7.338,7.338,0,0,1-.55,2.871,6.447,6.447,0,0,1-1.551,2.244,7.191,7.191,0,0,1-2.4,1.463A8.616,8.616,0,0,1,55.488-.968ZM49.922-7.9a7.275,7.275,0,0,0,.418,2.453,7.2,7.2,0,0,0,1.144,2.09A5.552,5.552,0,0,0,53.211-1.9a4.544,4.544,0,0,0,2.189.539,5.294,5.294,0,0,0,4.268-1.705A7.308,7.308,0,0,0,61.12-7.942a9.231,9.231,0,0,0-.407-2.816,6.672,6.672,0,0,0-1.144-2.189A5.179,5.179,0,0,0,57.8-14.366a5.185,5.185,0,0,0-2.31-.506,5.084,5.084,0,0,0-2.365.539,5.024,5.024,0,0,0-1.749,1.485A6.965,6.965,0,0,0,50.3-10.626,9.655,9.655,0,0,0,49.922-7.9ZM71.5-11.814Q70.866-14.7,68.336-14.7a3.149,3.149,0,0,0-1.1.187,3.176,3.176,0,0,0-.891.495,2.162,2.162,0,0,0-.594.726,1.942,1.942,0,0,0-.209.88,1.8,1.8,0,0,0,.132.693,1.939,1.939,0,0,0,.506.66,6.594,6.594,0,0,0,1.034.737q.66.4,1.694.946,1.056.528,1.793.957a6.206,6.206,0,0,1,1.221.9,2.927,2.927,0,0,1,.7,1.045,3.87,3.87,0,0,1,.22,1.386A3.78,3.78,0,0,1,71.559-2.1a5.263,5.263,0,0,1-3.6,1.133A7.546,7.546,0,0,1,64.068-2L64.31-5.28h.308a4.2,4.2,0,0,0,.44,1.474,4.419,4.419,0,0,0,.869,1.177,4.065,4.065,0,0,0,1.155.781,3.145,3.145,0,0,0,1.3.286,3.73,3.73,0,0,0,1.166-.187,3.316,3.316,0,0,0,1-.517,2.6,2.6,0,0,0,.693-.8A2.108,2.108,0,0,0,71.5-4.114a2.453,2.453,0,0,0-.154-.913,2.24,2.24,0,0,0-.539-.759,5.765,5.765,0,0,0-1.045-.77q-.66-.4-1.672-.924a10.936,10.936,0,0,1-2.86-2,3.165,3.165,0,0,1-.9-2.222,3.222,3.222,0,0,1,.319-1.441,3.429,3.429,0,0,1,.9-1.133,4.213,4.213,0,0,1,1.375-.748,5.542,5.542,0,0,1,1.76-.264,5.126,5.126,0,0,1,3.19.968l-.088,2.508Zm6.314,4.246-1.76,5.1a.8.8,0,0,0-.044.506q.066.176.66.22l1.54.11v.352q-.22-.022-.891-.033T75.508-1.32q-1.144,0-1.815.011t-.891.033v-.352l1.386-.11A1.145,1.145,0,0,0,75.2-2.552L80.128-15.84h.638L85.628-2.706a1.642,1.642,0,0,0,.286.506,1.219,1.219,0,0,0,.484.242l1.21.374v.33q-1.122-.066-2.882-.066h-1.1q-.506,0-.957.022t-.825.044v-.33L83.3-1.8a3.228,3.228,0,0,0,.484-.1.378.378,0,0,0,.231-.154.371.371,0,0,0,.033-.242,1.74,1.74,0,0,0-.11-.363L82.152-7.568Zm4.158-.484L79.93-13.728,77.994-8.052Zm7.546-5.39a1.543,1.543,0,0,0-.132-.748.691.691,0,0,0-.506-.286l-1.5-.264v-.352q.726.022,1.727-.011t2.057-.088q1.056-.055,2.046-.088t1.716-.011a10.665,10.665,0,0,1,3.08.517A7.532,7.532,0,0,1,100.5-13.42a6.408,6.408,0,0,1,1.672,2.145,6.475,6.475,0,0,1,.616,2.871,7.16,7.16,0,0,1-.594,2.97,6.6,6.6,0,0,1-1.628,2.244,7.082,7.082,0,0,1-2.431,1.408,9.111,9.111,0,0,1-3,.484l-3.564-.088h-4.4v-.352l1.716-.374a.711.711,0,0,0,.495-.286,1.679,1.679,0,0,0,.143-.836Zm1.8,9.68a1.426,1.426,0,0,0,.187.693,1.919,1.919,0,0,0,.561.616,3.006,3.006,0,0,0,.924.44,4.453,4.453,0,0,0,1.276.165,7.024,7.024,0,0,0,2.409-.418,5.743,5.743,0,0,0,2.024-1.243,5.941,5.941,0,0,0,1.386-2.079,7.574,7.574,0,0,0,.517-2.9,6.372,6.372,0,0,0-.517-2.629,5.35,5.35,0,0,0-1.485-1.958,6.777,6.777,0,0,0-2.354-1.232,10.55,10.55,0,0,0-3.124-.429,2.854,2.854,0,0,0-1.5.242,1.33,1.33,0,0,0-.308,1.056Zm16.588-3.806-1.76,5.1a.8.8,0,0,0-.044.506q.066.176.66.22l1.54.11v.352q-.22-.022-.891-.033T105.6-1.32q-1.144,0-1.815.011t-.891.033v-.352l1.386-.11a1.145,1.145,0,0,0,1.012-.814l4.928-13.288h.638l4.862,13.134a1.642,1.642,0,0,0,.286.506,1.219,1.219,0,0,0,.484.242l1.21.374v.33q-1.122-.066-2.882-.066h-1.1q-.506,0-.957.022t-.825.044v-.33l1.452-.22a3.228,3.228,0,0,0,.484-.1.378.378,0,0,0,.231-.154.371.371,0,0,0,.033-.242,1.741,1.741,0,0,0-.11-.363l-1.782-4.906Zm4.158-.484-2.046-5.676L108.09-8.052Zm13.482-7.834a1.823,1.823,0,0,0-.156-.884.816.816,0,0,0-.6-.338l-1.768-.312v-.416q.858.026,2.041-.013t2.431-.1q1.248-.065,2.418-.1t2.028-.013a12.6,12.6,0,0,1,3.64.611,8.9,8.9,0,0,1,2.938,1.6,7.574,7.574,0,0,1,1.976,2.535,7.652,7.652,0,0,1,.728,3.393,8.462,8.462,0,0,1-.7,3.51,7.8,7.8,0,0,1-1.924,2.652,8.369,8.369,0,0,1-2.873,1.664,10.768,10.768,0,0,1-3.549.572l-4.212-.1h-5.2v-.416L124.8-2.5a.841.841,0,0,0,.585-.338,1.985,1.985,0,0,0,.169-.988Zm2.132,11.44a1.686,1.686,0,0,0,.221.819,2.268,2.268,0,0,0,.663.728,3.552,3.552,0,0,0,1.092.52,5.262,5.262,0,0,0,1.508.195,8.3,8.3,0,0,0,2.847-.494,6.788,6.788,0,0,0,2.392-1.469A7.021,7.021,0,0,0,138.047-6.6a8.952,8.952,0,0,0,.611-3.432,7.53,7.53,0,0,0-.611-3.107,6.322,6.322,0,0,0-1.755-2.314,8.009,8.009,0,0,0-2.782-1.456,12.469,12.469,0,0,0-3.692-.507,3.373,3.373,0,0,0-1.768.286,1.572,1.572,0,0,0-.364,1.248Zm27.706-.46a18.2,18.2,0,0,0-.55,3.63q-2.75-.066-6.424-.066-3.7,0-6.424.066V-1.65l1.584-.11a.846.846,0,0,0,.517-.154.889.889,0,0,0,.143-.616V-13.6a1.742,1.742,0,0,0-.121-.759.484.484,0,0,0-.429-.253l-1.606-.154v-.4q1.782.066,5.94.066,4.136,0,5.9-.066-.066.682-.066,1.518t.044,1.54h-.286q-.374-.924-.6-1.419a5.288,5.288,0,0,0-.407-.748.739.739,0,0,0-.352-.308,2.146,2.146,0,0,0-.462-.077h-5.1a.553.553,0,0,0-.506.209,1.414,1.414,0,0,0-.132.715v5.06h4.95a.986.986,0,0,0,.55-.121.856.856,0,0,0,.264-.539l.286-1.54h.44q-.132,2.618,0,5.28h-.264L151.784-7.3a1.476,1.476,0,0,0-.264-.506.858.858,0,0,0-.407-.253,2.388,2.388,0,0,0-.616-.088q-.363-.011-.891-.011h-3.564v5.478a.982.982,0,0,0,.176.671,1.058,1.058,0,0,0,.748.187h4.884a3.365,3.365,0,0,0,.858-.1,1.713,1.713,0,0,0,.726-.429,4.356,4.356,0,0,0,.715-.935,14.378,14.378,0,0,0,.8-1.617Zm14.862-9.056q-.754-3.406-3.744-3.406a3.722,3.722,0,0,0-1.3.221,3.753,3.753,0,0,0-1.053.585,2.555,2.555,0,0,0-.7.858,2.3,2.3,0,0,0-.247,1.04,2.121,2.121,0,0,0,.156.819,2.292,2.292,0,0,0,.6.78,7.792,7.792,0,0,0,1.222.871q.78.468,2,1.118,1.248.624,2.119,1.131a7.335,7.335,0,0,1,1.443,1.066,3.459,3.459,0,0,1,.832,1.235,4.574,4.574,0,0,1,.26,1.638,4.467,4.467,0,0,1-1.521,3.523,6.22,6.22,0,0,1-4.251,1.339,8.917,8.917,0,0,1-4.6-1.222l.286-3.874h.364a4.958,4.958,0,0,0,.52,1.742,5.222,5.222,0,0,0,1.027,1.391,4.8,4.8,0,0,0,1.365.923,3.716,3.716,0,0,0,1.534.338,4.408,4.408,0,0,0,1.378-.221,3.918,3.918,0,0,0,1.183-.611,3.077,3.077,0,0,0,.819-.949,2.491,2.491,0,0,0,.312-1.235,2.9,2.9,0,0,0-.182-1.079,2.647,2.647,0,0,0-.637-.9,6.812,6.812,0,0,0-1.235-.91q-.78-.468-1.976-1.092a12.924,12.924,0,0,1-3.38-2.366,3.741,3.741,0,0,1-1.066-2.626,3.808,3.808,0,0,1,.377-1.7,4.052,4.052,0,0,1,1.066-1.339,4.98,4.98,0,0,1,1.625-.884,6.55,6.55,0,0,1,2.08-.312,6.058,6.058,0,0,1,3.77,1.144l-.1,2.964Zm6.566,6.394-1.76,5.1a.8.8,0,0,0-.044.506q.066.176.66.22l1.54.11v.352q-.22-.022-.891-.033T174.51-1.32q-1.144,0-1.815.011t-.891.033v-.352l1.386-.11a1.145,1.145,0,0,0,1.012-.814L179.13-15.84h.638L184.63-2.706a1.642,1.642,0,0,0,.286.506,1.219,1.219,0,0,0,.484.242l1.21.374v.33q-1.122-.066-2.882-.066h-1.1q-.506,0-.957.022t-.825.044v-.33L182.3-1.8a3.228,3.228,0,0,0,.484-.1.378.378,0,0,0,.231-.154.371.371,0,0,0,.033-.242,1.74,1.74,0,0,0-.11-.363l-1.782-4.906Zm4.158-.484-2.046-5.676L177-8.052Zm11.264-7.084v.352l-1.386.176a.72.72,0,0,0-.561.3,1.509,1.509,0,0,0-.165.8v7.854a4.359,4.359,0,0,0,.88,3.047,3.813,3.813,0,0,0,2.882.935,7.221,7.221,0,0,0,2.266-.3,2.78,2.78,0,0,0,1.386-.979,4.2,4.2,0,0,0,.7-1.771,15.256,15.256,0,0,0,.2-2.673v-6.094a.986.986,0,0,0-.9-1.056l-1.3-.242v-.352q.264.022.858.044t1.386.022q1.694,0,2.266-.066v.352l-1.276.286Q199-14.41,199-13.486V-6.82a11.154,11.154,0,0,1-.275,2.651,4.413,4.413,0,0,1-.869,1.815A3.531,3.531,0,0,1,196.3-1.309a6.95,6.95,0,0,1-2.321.341,6.673,6.673,0,0,1-4.158-1.111,3.86,3.86,0,0,1-1.43-3.245v-8.25a1.9,1.9,0,0,0-.11-.759.5.5,0,0,0-.418-.275l-1.562-.176v-.352q1.452.066,3.3.066T192.242-15.136Zm21.582,10.78q-.11.682-.286,1.386t-.4,1.452a11.653,11.653,0,0,1-4.092.55,9.272,9.272,0,0,1-3.113-.5,6.614,6.614,0,0,1-2.365-1.408,6.258,6.258,0,0,1-1.5-2.189,7.356,7.356,0,0,1-.528-2.838,7.217,7.217,0,0,1,.55-2.783,7.74,7.74,0,0,1,1.507-2.354,7.4,7.4,0,0,1,2.255-1.639,6.434,6.434,0,0,1,2.794-.616q.946,0,1.628.033a10.151,10.151,0,0,1,1.2.121,4.271,4.271,0,0,1,.957.275,6.7,6.7,0,0,1,.9.473q.066.528.1,1.067t.011,1.111h-.418a3.64,3.64,0,0,0-1.485-1.947,4.563,4.563,0,0,0-2.519-.671,4.6,4.6,0,0,0-2.145.506A5.021,5.021,0,0,0,205.2-12.9a7.045,7.045,0,0,0-1.111,2.2,9.338,9.338,0,0,0-.407,2.827,7.355,7.355,0,0,0,1.353,4.785,4.905,4.905,0,0,0,4.015,1.639,4.714,4.714,0,0,0,4.488-2.9Zm13.794-.55a18.2,18.2,0,0,0-.55,3.63q-2.75-.066-6.424-.066-3.7,0-6.424.066V-1.65l1.584-.11a.845.845,0,0,0,.517-.154.889.889,0,0,0,.143-.616V-13.6a1.742,1.742,0,0,0-.121-.759.484.484,0,0,0-.429-.253l-1.606-.154v-.4q1.782.066,5.94.066,4.136,0,5.9-.066-.066.682-.066,1.518t.044,1.54h-.286q-.374-.924-.6-1.419a5.288,5.288,0,0,0-.407-.748.739.739,0,0,0-.352-.308,2.146,2.146,0,0,0-.462-.077h-5.1a.553.553,0,0,0-.506.209,1.414,1.414,0,0,0-.132.715v5.06h4.95a.986.986,0,0,0,.55-.121.856.856,0,0,0,.264-.539l.286-1.54h.44q-.132,2.618,0,5.28h-.264L224.01-7.3a1.476,1.476,0,0,0-.264-.506.858.858,0,0,0-.407-.253,2.388,2.388,0,0,0-.616-.088q-.363-.011-.891-.011h-3.564v5.478a.982.982,0,0,0,.176.671,1.058,1.058,0,0,0,.748.187h4.884a3.365,3.365,0,0,0,.858-.1,1.713,1.713,0,0,0,.726-.429,4.356,4.356,0,0,0,.715-.935,14.378,14.378,0,0,0,.8-1.617Z" transform="translate(6 45)" fill="#1a1818"/><path d="M8.4-9.42a.893.893,0,0,0-.075-.427A.3.3,0,0,0,8.07-9.99l-.795-.09v-.24q.285.03.742.045t1.1.015q.645,0,1.1-.015t.728-.045v.24l-1.065.15A.332.332,0,0,0,9.63-9.8a.869.869,0,0,0-.06.39V-1.92a1.083,1.083,0,0,0,.068.45.429.429,0,0,0,.338.18l1.155.21v.24q-.375-.03-.863-.045T9.165-.9q-.6,0-1.1.015T7.17-.84v-.24l.93-.15a.288.288,0,0,0,.24-.18,1.518,1.518,0,0,0,.06-.51V-5.385H3.015V-1.92a1.51,1.51,0,0,0,.06.518.3.3,0,0,0,.255.173l.93.15v.24q-.39-.03-.893-.045T2.25-.9q-.6,0-1.087.015T.3-.84v-.24l1.155-.21a.424.424,0,0,0,.315-.18.986.986,0,0,0,.075-.45v-7.5a.893.893,0,0,0-.075-.427.3.3,0,0,0-.255-.142l-.8-.09v-.24q.285.03.75.045t1.14.015q.675,0,1.133-.015t.728-.045v.24l-1.14.15a.332.332,0,0,0-.255.135.869.869,0,0,0-.06.39V-5.82H8.4ZM19.035-.66a5.813,5.813,0,0,1-2.085-.36,4.855,4.855,0,0,1-1.628-1,4.509,4.509,0,0,1-1.058-1.522A4.816,4.816,0,0,1,13.89-5.46a4.9,4.9,0,0,1,.383-1.935,4.76,4.76,0,0,1,1.08-1.575,5.06,5.06,0,0,1,1.688-1.065,5.97,5.97,0,0,1,2.2-.39,5.029,5.029,0,0,1,1.92.368,4.914,4.914,0,0,1,1.575,1.02,4.752,4.752,0,0,1,1.065,1.56,4.943,4.943,0,0,1,.39,1.972,5,5,0,0,1-.375,1.958,4.4,4.4,0,0,1-1.057,1.53,4.9,4.9,0,0,1-1.635,1A5.874,5.874,0,0,1,19.035-.66Zm-3.8-4.725a4.96,4.96,0,0,0,.285,1.672,4.908,4.908,0,0,0,.78,1.425,3.786,3.786,0,0,0,1.177.99,3.1,3.1,0,0,0,1.492.367,3.61,3.61,0,0,0,2.91-1.163,4.983,4.983,0,0,0,.99-3.322,6.294,6.294,0,0,0-.278-1.92,4.549,4.549,0,0,0-.78-1.493A3.531,3.531,0,0,0,20.61-9.8a3.535,3.535,0,0,0-1.575-.345,3.466,3.466,0,0,0-1.612.368A3.425,3.425,0,0,0,16.23-8.76a4.749,4.749,0,0,0-.735,1.515A6.583,6.583,0,0,0,15.24-5.385Zm17.115-2.67q-.435-1.965-2.16-1.965a2.147,2.147,0,0,0-.75.127,2.165,2.165,0,0,0-.608.337,1.474,1.474,0,0,0-.4.5,1.324,1.324,0,0,0-.142.6,1.224,1.224,0,0,0,.09.472,1.322,1.322,0,0,0,.345.45,4.5,4.5,0,0,0,.7.5q.45.27,1.155.645.72.36,1.223.653a4.231,4.231,0,0,1,.832.615,2,2,0,0,1,.48.713,2.639,2.639,0,0,1,.15.945,2.577,2.577,0,0,1-.877,2.033A3.588,3.588,0,0,1,29.94-.66a5.145,5.145,0,0,1-2.655-.705L27.45-3.6h.21a2.86,2.86,0,0,0,.3,1.005,3.013,3.013,0,0,0,.592.8,2.771,2.771,0,0,0,.788.532,2.144,2.144,0,0,0,.885.195,2.543,2.543,0,0,0,.8-.127,2.261,2.261,0,0,0,.682-.352,1.775,1.775,0,0,0,.472-.548,1.437,1.437,0,0,0,.18-.712,1.673,1.673,0,0,0-.1-.622,1.527,1.527,0,0,0-.368-.518,3.931,3.931,0,0,0-.712-.525q-.45-.27-1.14-.63a7.456,7.456,0,0,1-1.95-1.365,2.158,2.158,0,0,1-.615-1.515,2.2,2.2,0,0,1,.218-.983,2.338,2.338,0,0,1,.615-.772,2.873,2.873,0,0,1,.938-.51,3.779,3.779,0,0,1,1.2-.18,3.5,3.5,0,0,1,2.175.66l-.06,1.71Zm3.66-2.22q.735,0,1.23-.008T38-10.3l2.13-.12a1.875,1.875,0,0,1,.233-.015h.232a3.875,3.875,0,0,1,1.44.24,2.88,2.88,0,0,1,.983.623,2.288,2.288,0,0,1,.555.885A3.1,3.1,0,0,1,43.74-7.68a2.682,2.682,0,0,1-.225,1.1,2.788,2.788,0,0,1-.622.892,2.917,2.917,0,0,1-.93.6,3.005,3.005,0,0,1-1.147.218,1.781,1.781,0,0,1-1.44-.585l.09-.09a2.374,2.374,0,0,0,.81.135,2.28,2.28,0,0,0,.847-.157,2.069,2.069,0,0,0,.69-.443,2.007,2.007,0,0,0,.458-.69,2.365,2.365,0,0,0,.165-.9,2.459,2.459,0,0,0-.135-.81,2.16,2.16,0,0,0-.4-.7,2.4,2.4,0,0,0-.682-.54,2.784,2.784,0,0,0-.967-.3,5.015,5.015,0,0,0-.705-.045,2.108,2.108,0,0,0-.8.12v8.07a.444.444,0,0,0,.1.322.95.95,0,0,0,.428.173l1.1.24v.24q-.63-.03-1.1-.045T38.46-.9q-.645,0-2.145.045V-1.1l.84-.12a.434.434,0,0,0,.3-.165.8.8,0,0,0,.075-.405V-8.94a.8.8,0,0,0-.353-.765,3.32,3.32,0,0,0-1.163-.285ZM55.44-3.345A12.41,12.41,0,0,0,55.065-.87q-1.875-.045-4.38-.045-2.52,0-4.38.045v-.255l1.08-.075a.576.576,0,0,0,.353-.105.606.606,0,0,0,.1-.42V-9.27a1.188,1.188,0,0,0-.083-.517.33.33,0,0,0-.292-.173l-1.1-.105v-.27q1.215.045,4.05.045t4.02-.045Q54.39-9.87,54.39-9.3t.03,1.05h-.195q-.255-.63-.412-.967a3.6,3.6,0,0,0-.278-.51.5.5,0,0,0-.24-.21,1.463,1.463,0,0,0-.315-.052H49.5a.377.377,0,0,0-.345.142.964.964,0,0,0-.09.487v3.45H52.44a.672.672,0,0,0,.375-.083.584.584,0,0,0,.18-.367l.195-1.05h.3q-.09,1.785,0,3.6h-.18l-.33-1.17a1.006,1.006,0,0,0-.18-.345.585.585,0,0,0-.278-.173,1.628,1.628,0,0,0-.42-.06q-.248-.008-.608-.008h-2.43V-1.83a.67.67,0,0,0,.12.458.721.721,0,0,0,.51.127h3.33a2.294,2.294,0,0,0,.585-.067,1.168,1.168,0,0,0,.495-.293,2.97,2.97,0,0,0,.487-.638,9.8,9.8,0,0,0,.548-1.1Zm3.93-5.82a1.052,1.052,0,0,0-.09-.51.471.471,0,0,0-.345-.2l-1.02-.18v-.24q.495.015,1.177-.008t1.4-.06q.72-.038,1.4-.06t1.17-.007a7.272,7.272,0,0,1,2.1.352,5.135,5.135,0,0,1,1.695.922,4.369,4.369,0,0,1,1.14,1.463,4.414,4.414,0,0,1,.42,1.957,4.882,4.882,0,0,1-.4,2.025,4.5,4.5,0,0,1-1.11,1.53,4.828,4.828,0,0,1-1.658.96,6.212,6.212,0,0,1-2.048.33l-2.43-.06h-3v-.24l1.17-.255a.485.485,0,0,0,.338-.195,1.145,1.145,0,0,0,.1-.57Zm1.23,6.6a.973.973,0,0,0,.128.472,1.308,1.308,0,0,0,.382.42,2.049,2.049,0,0,0,.63.3,3.036,3.036,0,0,0,.87.112,4.789,4.789,0,0,0,1.643-.285,3.916,3.916,0,0,0,1.38-.847,4.051,4.051,0,0,0,.945-1.418,5.164,5.164,0,0,0,.353-1.98,4.344,4.344,0,0,0-.353-1.793,3.648,3.648,0,0,0-1.012-1.335,4.621,4.621,0,0,0-1.605-.84,7.193,7.193,0,0,0-2.13-.293,1.946,1.946,0,0,0-1.02.165.907.907,0,0,0-.21.72Zm13.71-2.6-1.2,3.48a.542.542,0,0,0-.03.345q.045.12.45.15l1.05.075v.24q-.15-.015-.607-.023T72.735-.9q-.78,0-1.238.007T70.89-.87v-.24l.945-.075a.781.781,0,0,0,.69-.555l3.36-9.06h.435l3.315,8.955a1.12,1.12,0,0,0,.195.345.831.831,0,0,0,.33.165l.825.255v.225Q80.22-.9,79.02-.9h-.75q-.345,0-.652.015l-.562.03V-1.08l.99-.15a2.2,2.2,0,0,0,.33-.067.258.258,0,0,0,.158-.105.253.253,0,0,0,.022-.165,1.187,1.187,0,0,0-.075-.247L77.265-5.16Zm2.835-.33L75.75-9.36,74.43-5.49Zm9.87-4.575-.735.135a.328.328,0,0,0-.27.15.979.979,0,0,0-.06.4v5.7a15.666,15.666,0,0,1-.165,2.385A4.736,4.736,0,0,1,85.1.585a4.793,4.793,0,0,1-.525.675,2.817,2.817,0,0,1-.577.473,2.385,2.385,0,0,1-.668.277,3.346,3.346,0,0,1-.81.09,1.274,1.274,0,0,1-.375-.06.941.941,0,0,1-.33-.173.7.7,0,0,1-.2-.277.474.474,0,0,1,.007-.36A.444.444,0,0,1,82.08.885a1.222,1.222,0,0,1,.78.375.7.7,0,0,0,.338.173.828.828,0,0,0,.368-.008,1.269,1.269,0,0,0,.352-.15,1.634,1.634,0,0,0,.308-.24,2.464,2.464,0,0,0,.345-.45,1.6,1.6,0,0,0,.165-.6q.045-.39.052-1.072t.007-1.883V-9.42a1.809,1.809,0,0,0-.015-.262.275.275,0,0,0-.075-.158.345.345,0,0,0-.187-.082q-.127-.023-.368-.053l-.885-.09v-.24q.375.045,1.86.045t1.89-.045Zm12.18,6.72A12.409,12.409,0,0,0,98.82-.87q-1.875-.045-4.38-.045T90.06-.87v-.255L91.14-1.2a.576.576,0,0,0,.353-.105.606.606,0,0,0,.1-.42V-9.27a1.188,1.188,0,0,0-.082-.517.33.33,0,0,0-.293-.173l-1.1-.105v-.27q1.215.045,4.05.045t4.02-.045q-.045.465-.045,1.035t.03,1.05H97.98q-.255-.63-.412-.967a3.6,3.6,0,0,0-.278-.51.5.5,0,0,0-.24-.21,1.463,1.463,0,0,0-.315-.052h-3.48a.377.377,0,0,0-.345.142.964.964,0,0,0-.09.487v3.45h3.375a.672.672,0,0,0,.375-.083.584.584,0,0,0,.18-.367l.195-1.05h.3q-.09,1.785,0,3.6h-.18l-.33-1.17a1.006,1.006,0,0,0-.18-.345.585.585,0,0,0-.278-.173,1.628,1.628,0,0,0-.42-.06q-.248-.008-.607-.008H92.82V-1.83a.67.67,0,0,0,.12.458.721.721,0,0,0,.51.127h3.33a2.294,2.294,0,0,0,.585-.067,1.168,1.168,0,0,0,.5-.293,2.97,2.97,0,0,0,.487-.638,9.806,9.806,0,0,0,.548-1.1Zm17.19,0A12.409,12.409,0,0,0,116.01-.87q-1.875-.045-4.38-.045t-4.38.045v-.255l1.08-.075a.576.576,0,0,0,.353-.105.606.606,0,0,0,.1-.42V-9.27a1.188,1.188,0,0,0-.082-.517.33.33,0,0,0-.293-.173l-1.1-.105v-.27q1.215.045,4.05.045t4.02-.045q-.045.465-.045,1.035t.03,1.05h-.195q-.255-.63-.412-.967a3.6,3.6,0,0,0-.278-.51.5.5,0,0,0-.24-.21,1.463,1.463,0,0,0-.315-.052h-3.48a.377.377,0,0,0-.345.142.964.964,0,0,0-.09.487v3.45h3.375a.672.672,0,0,0,.375-.083.584.584,0,0,0,.18-.367l.195-1.05h.3q-.09,1.785,0,3.6h-.18l-.33-1.17a1.006,1.006,0,0,0-.18-.345.585.585,0,0,0-.278-.173,1.628,1.628,0,0,0-.42-.06q-.248-.008-.607-.008h-2.43V-1.83a.67.67,0,0,0,.12.458.721.721,0,0,0,.51.127h3.33a2.294,2.294,0,0,0,.585-.067,1.168,1.168,0,0,0,.5-.293,2.97,2.97,0,0,0,.487-.638,9.806,9.806,0,0,0,.548-1.1Zm11.16.375q-.075.465-.195.945t-.27.99a7.945,7.945,0,0,1-2.79.375A6.322,6.322,0,0,1,122.167-1a4.509,4.509,0,0,1-1.612-.96,4.267,4.267,0,0,1-1.02-1.492,5.015,5.015,0,0,1-.36-1.935,4.921,4.921,0,0,1,.375-1.9,5.277,5.277,0,0,1,1.028-1.6,5.046,5.046,0,0,1,1.537-1.118,4.387,4.387,0,0,1,1.9-.42q.645,0,1.11.023a6.921,6.921,0,0,1,.818.082,2.912,2.912,0,0,1,.652.188,4.567,4.567,0,0,1,.615.323q.045.36.068.727t.007.757H127a2.482,2.482,0,0,0-1.012-1.327,3.111,3.111,0,0,0-1.717-.458,3.138,3.138,0,0,0-1.463.345,3.424,3.424,0,0,0-1.147.968,4.8,4.8,0,0,0-.757,1.5,6.366,6.366,0,0,0-.278,1.927,5.015,5.015,0,0,0,.923,3.263A3.344,3.344,0,0,0,124.29-.99a3.214,3.214,0,0,0,3.06-1.98ZM135.69-.66a5.813,5.813,0,0,1-2.085-.36,4.855,4.855,0,0,1-1.628-1,4.509,4.509,0,0,1-1.057-1.522,4.816,4.816,0,0,1-.375-1.913,4.9,4.9,0,0,1,.382-1.935,4.76,4.76,0,0,1,1.08-1.575,5.06,5.06,0,0,1,1.688-1.065,5.97,5.97,0,0,1,2.205-.39,5.029,5.029,0,0,1,1.92.368,4.914,4.914,0,0,1,1.575,1.02,4.752,4.752,0,0,1,1.065,1.56,4.943,4.943,0,0,1,.39,1.972,5,5,0,0,1-.375,1.958,4.4,4.4,0,0,1-1.057,1.53,4.9,4.9,0,0,1-1.635,1A5.874,5.874,0,0,1,135.69-.66Zm-3.8-4.725a4.96,4.96,0,0,0,.285,1.672,4.908,4.908,0,0,0,.78,1.425,3.786,3.786,0,0,0,1.178.99,3.1,3.1,0,0,0,1.492.367,3.61,3.61,0,0,0,2.91-1.163,4.983,4.983,0,0,0,.99-3.322,6.294,6.294,0,0,0-.277-1.92,4.55,4.55,0,0,0-.78-1.493,3.531,3.531,0,0,0-1.208-.967,3.535,3.535,0,0,0-1.575-.345,3.466,3.466,0,0,0-1.613.368,3.425,3.425,0,0,0-1.193,1.012,4.749,4.749,0,0,0-.735,1.515A6.583,6.583,0,0,0,131.895-5.385Zm14.6,3.81a.516.516,0,0,0,.068.292q.067.1.352.1h1.4q.705,0,1.223-.045a2.444,2.444,0,0,0,.923-.255,2.13,2.13,0,0,0,.72-.63A5.509,5.509,0,0,0,151.8-3.3h.24L151.6-.84q-.63-.03-1.658-.045T147.435-.9q-1.485,0-2.46.015T143.52-.84v-.21l.915-.135a2.815,2.815,0,0,0,.533-.105.43.43,0,0,0,.24-.172.563.563,0,0,0,.068-.293V-9.4a.49.49,0,0,0-.1-.368.588.588,0,0,0-.292-.112l-1.155-.2v-.24q.81.045,2.43.045t2.01-.045v.24l-1.29.2a.646.646,0,0,0-.307.1q-.083.067-.083.382Zm12.39-9.3,1.05-1.5q.555-.78,1.005-.78a.429.429,0,0,1,.292.113.341.341,0,0,1,.128.262q0,.315-.585.72l-1.725,1.185Zm.72,10.14a5.813,5.813,0,0,1-2.085-.36,4.855,4.855,0,0,1-1.628-1,4.509,4.509,0,0,1-1.057-1.523,4.816,4.816,0,0,1-.375-1.912,4.71,4.71,0,0,1,.382-1.86,4.76,4.76,0,0,1,1.08-1.575,5.06,5.06,0,0,1,1.688-1.065,5.97,5.97,0,0,1,2.205-.39,5.029,5.029,0,0,1,1.92.368,4.914,4.914,0,0,1,1.575,1.02,4.752,4.752,0,0,1,1.065,1.56,4.757,4.757,0,0,1,.39,1.9,5,5,0,0,1-.375,1.957,4.4,4.4,0,0,1-1.057,1.53,4.9,4.9,0,0,1-1.635,1A5.874,5.874,0,0,1,159.6-.735ZM155.8-5.46a4.96,4.96,0,0,0,.285,1.673,4.908,4.908,0,0,0,.78,1.425,3.786,3.786,0,0,0,1.178.99A3.1,3.1,0,0,0,159.54-1a3.61,3.61,0,0,0,2.91-1.163,4.983,4.983,0,0,0,.99-3.322,6.036,6.036,0,0,0-.277-1.845,4.55,4.55,0,0,0-.78-1.493,3.531,3.531,0,0,0-1.208-.967,3.535,3.535,0,0,0-1.575-.345,3.466,3.466,0,0,0-1.613.368,3.425,3.425,0,0,0-1.193,1.012,4.749,4.749,0,0,0-.735,1.515A6.314,6.314,0,0,0,155.8-5.46Zm22.83.645-.975.105a.639.639,0,0,0-.353.12.393.393,0,0,0-.1.3v1.665q0,.4-.015.645a.874.874,0,0,1-.1.383.6.6,0,0,1-.263.232,5.085,5.085,0,0,1-.51.21,7.3,7.3,0,0,1-1.357.36,9.447,9.447,0,0,1-1.628.135A6.668,6.668,0,0,1,171.135-1a5.1,5.1,0,0,1-1.695-.96,4.174,4.174,0,0,1-1.088-1.485,4.719,4.719,0,0,1-.382-1.92,4.79,4.79,0,0,1,.435-2.055,4.788,4.788,0,0,1,1.2-1.6,5.466,5.466,0,0,1,1.823-1.035,6.97,6.97,0,0,1,2.3-.368,6.953,6.953,0,0,1,3.33.72l.12,1.8-.21.045a3.149,3.149,0,0,0-3.03-2.235,5.135,5.135,0,0,0-1.868.322,3.986,3.986,0,0,0-1.417.915,3.932,3.932,0,0,0-.893,1.432,5.423,5.423,0,0,0-.307,1.875,4.6,4.6,0,0,0,.322,1.7,4.643,4.643,0,0,0,.9,1.448,4.424,4.424,0,0,0,1.357,1,3.86,3.86,0,0,0,1.695.375q2.25,0,2.25-1.6V-4.29a.383.383,0,0,0-.113-.315.627.627,0,0,0-.352-.105l-1.44-.105v-.27q1.17.06,2.28.06t2.28-.06Zm4.1,3.105V-9.465a.6.6,0,0,0-.083-.36.39.39,0,0,0-.292-.12l-1.32-.135v-.24q.15.045,3.15.045.885,0,1.41-.045v.255l-.885.09q-.21.03-.36.038a.9.9,0,0,0-.255.045.251.251,0,0,0-.15.135.729.729,0,0,0-.045.292V-1.71a.529.529,0,0,0,.075.338.448.448,0,0,0,.3.1l1.32.075v.36q-.3-.03-.863-.045T183.315-.9q-.855,0-1.417.015t-.863.045V-1.2l.885-.045q.225-.015.383-.03a1.318,1.318,0,0,0,.255-.045.2.2,0,0,0,.135-.12A.739.739,0,0,0,182.73-1.71Zm14.04-1.26q-.075.465-.195.945t-.27.99a7.945,7.945,0,0,1-2.79.375A6.322,6.322,0,0,1,191.393-1a4.509,4.509,0,0,1-1.613-.96,4.267,4.267,0,0,1-1.02-1.492,5.015,5.015,0,0,1-.36-1.935,4.921,4.921,0,0,1,.375-1.9,5.277,5.277,0,0,1,1.027-1.6,5.046,5.046,0,0,1,1.538-1.118,4.386,4.386,0,0,1,1.9-.42q.645,0,1.11.023a6.921,6.921,0,0,1,.817.082,2.912,2.912,0,0,1,.653.188,4.568,4.568,0,0,1,.615.323q.045.36.068.727t.007.757h-.285a2.482,2.482,0,0,0-1.013-1.327,3.111,3.111,0,0,0-1.717-.458,3.137,3.137,0,0,0-1.462.345,3.424,3.424,0,0,0-1.148.968,4.8,4.8,0,0,0-.757,1.5,6.367,6.367,0,0,0-.277,1.927,5.015,5.015,0,0,0,.923,3.263A3.344,3.344,0,0,0,193.515-.99a3.214,3.214,0,0,0,3.06-1.98Zm8.145,2.31a5.813,5.813,0,0,1-2.085-.36,4.855,4.855,0,0,1-1.628-1,4.509,4.509,0,0,1-1.057-1.522,4.816,4.816,0,0,1-.375-1.913,4.9,4.9,0,0,1,.382-1.935,4.76,4.76,0,0,1,1.08-1.575,5.06,5.06,0,0,1,1.688-1.065,5.97,5.97,0,0,1,2.205-.39,5.029,5.029,0,0,1,1.92.368,4.914,4.914,0,0,1,1.575,1.02,4.752,4.752,0,0,1,1.065,1.56,4.943,4.943,0,0,1,.39,1.972,5,5,0,0,1-.375,1.958,4.4,4.4,0,0,1-1.057,1.53,4.9,4.9,0,0,1-1.635,1A5.874,5.874,0,0,1,204.915-.66Zm-3.8-4.725a4.96,4.96,0,0,0,.285,1.672,4.908,4.908,0,0,0,.78,1.425,3.786,3.786,0,0,0,1.178.99,3.1,3.1,0,0,0,1.492.367,3.61,3.61,0,0,0,2.91-1.163,4.983,4.983,0,0,0,.99-3.322,6.294,6.294,0,0,0-.277-1.92,4.55,4.55,0,0,0-.78-1.493A3.531,3.531,0,0,0,206.49-9.8a3.535,3.535,0,0,0-1.575-.345,3.466,3.466,0,0,0-1.613.368A3.425,3.425,0,0,0,202.11-8.76a4.749,4.749,0,0,0-.735,1.515A6.583,6.583,0,0,0,201.12-5.385Z" transform="translate(15 58)" fill="#1a1818"/></g></svg>