<svg xmlns="http://www.w3.org/2000/svg" width="229.978" height="54.964" viewBox="0 0 229.978 54.964"><g transform="translate(-19.475 -313.136)"><path d="M60.238,313.136,84.2,337.291,72.05,349.209h0c4.593-13.016-3.968-11.551-13.278-12.6-3.6-.609-7.171-.777-9.9-3.2-2.67-3.661-1.419-6.179-.564-8.484h0l11.933-11.78Z" transform="translate(-16.333 0)" fill="#696666" fill-rule="evenodd"/><path d="M19.475,371.07l11.933-11.305h0c-1.418,6.21-2.885,11.87,10.636,12.114,14.863.2,15.626,5.084,13.429,11.979h0l-11.6,11.658-24.4-24.446Z" transform="translate(0 -27.416)" fill="#1a1818" fill-rule="evenodd"/><path d="M165.982,340.663c-.29-1.526-1.815-2.228-4.592-2.228-2.23,0-3.343.566-3.343,1.525a1.42,1.42,0,0,0,.7,1.115,10.089,10.089,0,0,0,1.8.84c.7.137,1.679.412,2.5.549.976.137,1.953.427,2.792.564a42.087,42.087,0,0,1,6.379,1.664,9.868,9.868,0,0,1,3.755,2.639,5.563,5.563,0,0,1,1.4,3.617,7.1,7.1,0,0,1-2.227,5.265,13.377,13.377,0,0,1-5.844,2.776,31.687,31.687,0,0,1-7.645.841,24.455,24.455,0,0,1-7.354-.978,11.525,11.525,0,0,1-5.3-3.051,6.291,6.291,0,0,1-2.213-4.577h10.56a2.718,2.718,0,0,0,1.8,2.075,6.967,6.967,0,0,0,3.343.685c2.639-.136,4.165-.685,4.3-1.646,0-.84-.549-1.389-1.527-1.8-1.112-.29-2.914-.839-5.141-1.252-1.939-.427-3.754-.838-5.143-1.113a25.449,25.449,0,0,1-3.754-1.526,7.866,7.866,0,0,1-2.64-2.5,7.421,7.421,0,0,1-.977-3.615,6.13,6.13,0,0,1,1.678-4.167,13.059,13.059,0,0,1,5.007-2.792,26.4,26.4,0,0,1,7.781-1.1c1.663,0,3.464.274,4.854.411a20.935,20.935,0,0,1,4.454,1.389,11.451,11.451,0,0,1,3.19,2.5,9.087,9.087,0,0,1,1.815,3.891H165.982Zm16.679-7.508h10.971v15.7h0a5.588,5.588,0,0,0,.428,2.5,2.342,2.342,0,0,0,1.527,1.526,6.34,6.34,0,0,0,3.051.55,5.609,5.609,0,0,0,3.891-1.1,4.386,4.386,0,0,0,1.252-3.48h0v-15.7h10.971v14.74h0a13.2,13.2,0,0,1-1.113,5.541,10.283,10.283,0,0,1-3.068,3.754,15.827,15.827,0,0,1-4.974,1.938,25.8,25.8,0,0,1-6.958.7,32.843,32.843,0,0,1-6.805-.564,12.518,12.518,0,0,1-5.006-2.076,7.2,7.2,0,0,1-3.068-3.616,13.9,13.9,0,0,1-1.1-5.679h0v-14.74Zm39.31,0h10.285l11.825,14.176-.29-5.691v-8.484h10.575v25.972H243.929l-11.811-14.161.427,5.981v8.179H221.971V333.155Zm49.486,0h11.124l11.949,25.972H283.543l-1.389-3.464h-10.7l-1.389,3.464H259.356l12.1-25.972Zm2.077,17.09h6.822l-3.617-9.17-3.2,9.17Zm18.906-17.09h30.718v6.8h-9.873v19.167H302.314V339.96H292.44v-6.8Z" transform="translate(-74.863 -11.367)" fill="#1a1818" fill-rule="evenodd"/><path d="M147.247,411.539v1.5H324.579v-1.5Z" transform="translate(-75.126 -57.858)" fill="#1a1818" fill-rule="evenodd"/><g transform="translate(72.934 357.46)"><path d="M151.449,422.891c-.024-1.057-.47-1.39-.862-1.39-.3,0-.794.162-.794,1.2,0,.58.208.771.412.866l.993.447c.451.209.79.742.79,1.827,0,1.618-.766,2.066-1.362,2.066a1.109,1.109,0,0,1-1.052-.657,3.392,3.392,0,0,1-.354-1.732h.441c0,1.237.514,1.6.96,1.6.339,0,.911-.171.911-1.152a1.063,1.063,0,0,0-.742-1.209l-.712-.323c-.227-.105-.741-.419-.741-1.609,0-1.066.354-2.113,1.2-2.113,1.216,0,1.337,1.428,1.357,2.18Z" transform="translate(-149.22 -420.711)" fill="#1a1818" fill-rule="evenodd"/><path d="M160.778,421.149v4.436c0,1.4-.445,2.579-1.4,2.579-.935,0-1.337-1.18-1.337-2.455v-4.56h.47v4.3c0,1.485.46,1.894.882,1.894s.916-.391.916-1.875v-4.321Z" transform="translate(-154.406 -420.969)" fill="#1a1818" fill-rule="evenodd"/><path d="M167.706,427.983h-.47v-6.834H168.8c.645,0,1.033.819,1.033,1.923,0,.952-.276,2.028-1.033,2.028h-1.095Zm0-3.674h.935c.422,0,.707-.3.707-1.227,0-.866-.3-1.142-.688-1.142h-.954Z" transform="translate(-159.813 -420.969)" fill="#1a1818" fill-rule="evenodd"/><path d="M178.271,427.983H175.7v-6.834h2.534v.819h-2.064v2.094h1.9v.819h-1.9v2.284h2.1Z" transform="translate(-164.791 -420.969)" fill="#1a1818" fill-rule="evenodd"/><path d="M184.664,427.983h-.471v-6.834H185.8c.572,0,1.144.391,1.144,1.837a2.179,2.179,0,0,1-.485,1.637c.2.162.4.333.417,1.285l.029,1.237c0,.381.029.524.175.686v.152H186.5a16.329,16.329,0,0,1-.082-1.713c0-.561-.059-1.218-.621-1.218h-1.138Zm0-3.721h1.09c.344,0,.707-.171.707-1.18,0-1.057-.392-1.142-.625-1.142h-1.172Z" transform="translate(-169.783 -420.969)" fill="#1a1818" fill-rule="evenodd"/><path d="M193.813,427.983h-.47v-6.834h.47Z" transform="translate(-175.163 -420.969)" fill="#1a1818" fill-rule="evenodd"/><path d="M199.365,421.149h.456v6.834h-.528l-1.769-5.52h-.01v5.52h-.455v-6.834h.557l1.74,5.521h.009Z" transform="translate(-177.348 -420.969)" fill="#1a1818" fill-rule="evenodd"/><path d="M205.443,421.149h2.825v.819h-1.178v6.015h-.47v-6.015h-1.178Z" transform="translate(-182.277 -420.969)" fill="#1a1818" fill-rule="evenodd"/><path d="M216.667,427.983H214.1v-6.834h2.534v.819h-2.064v2.094h1.9v.819h-1.9v2.284h2.1Z" transform="translate(-187.367 -420.969)" fill="#1a1818" fill-rule="evenodd"/><path d="M224.755,421.149h.455v6.834h-.528l-1.769-5.52H222.9v5.52h-.456v-6.834h.557l1.74,5.521h.009Z" transform="translate(-192.276 -420.969)" fill="#1a1818" fill-rule="evenodd"/><path d="M231.621,421.149h1.41c.906,0,1.464,1.352,1.464,3.322,0,1.532-.339,3.512-1.483,3.512h-1.391Zm.47,6.044H233c.61,0,1.008-.942,1.008-2.665s-.4-2.589-1.042-2.589h-.877Z" transform="translate(-197.669 -420.969)" fill="#1a1818" fill-rule="evenodd"/><path d="M243.362,427.983h-2.568v-6.834h2.534v.819h-2.064v2.094h1.9v.819h-1.9v2.284h2.1Z" transform="translate(-203.062 -420.969)" fill="#1a1818" fill-rule="evenodd"/><path d="M251.45,421.149h.456v6.834h-.528l-1.768-5.52h-.01v5.52h-.455v-6.834h.557l1.74,5.521h.009Z" transform="translate(-207.972 -420.969)" fill="#1a1818" fill-rule="evenodd"/><path d="M260.478,422.948c-.131-1.2-.639-1.419-.974-1.419-.63,0-1.138.914-1.138,2.713,0,1.609.291,2.846,1.153,2.846.305,0,.833-.286.993-1.875h.455c-.194,2.579-1.26,2.693-1.522,2.693-.789,0-1.565-1.009-1.565-3.636,0-2.1.61-3.56,1.623-3.56.9,0,1.362,1.094,1.429,2.237Z" transform="translate(-213.109 -420.711)" fill="#1a1818" fill-rule="evenodd"/><path d="M268.017,427.983h-.47v-6.834h.47Z" transform="translate(-218.792 -420.969)" fill="#1a1818" fill-rule="evenodd"/><path d="M271.382,425.994l-.363,1.989h-.485l1.308-6.834h.533l1.26,6.834h-.513l-.344-1.989Zm1.226-.818-.513-3.008h-.009l-.557,3.008Z" transform="translate(-220.549 -420.969)" fill="#1a1818" fill-rule="evenodd"/><path d="M289.822,421.149h.456v6.834h-.528l-1.768-5.52h-.01v5.52h-.455v-6.834h.557l1.74,5.521h.009Z" transform="translate(-230.533 -420.969)" fill="#1a1818" fill-rule="evenodd"/><path d="M296.748,425.994l-.363,1.989H295.9l1.308-6.834h.533l1.26,6.834h-.514l-.344-1.989Zm1.226-.818-.514-3.008h-.01l-.557,3.008Z" transform="translate(-235.463 -420.969)" fill="#1a1818" fill-rule="evenodd"/><path d="M306.964,422.948c-.131-1.2-.64-1.419-.974-1.419-.63,0-1.139.914-1.139,2.713,0,1.609.291,2.846,1.153,2.846.305,0,.833-.286.993-1.875h.455c-.194,2.579-1.26,2.693-1.521,2.693-.79,0-1.565-1.009-1.565-3.636,0-2.1.611-3.56,1.623-3.56.9,0,1.361,1.094,1.429,2.237Z" transform="translate(-240.441 -420.711)" fill="#1a1818" fill-rule="evenodd"/><path d="M314.5,427.983h-.47v-6.834h.47Z" transform="translate(-246.125 -420.969)" fill="#1a1818" fill-rule="evenodd"/><path d="M319.01,427.906c-1.3,0-1.7-2.122-1.7-3.6s.4-3.6,1.7-3.6,1.7,2.122,1.7,3.6S320.309,427.906,319.01,427.906Zm0-6.377c-.756,0-1.211,1.171-1.211,2.779s.456,2.78,1.211,2.78,1.211-1.171,1.211-2.78S319.766,421.529,319.01,421.529Z" transform="translate(-248.054 -420.711)" fill="#1a1818" fill-rule="evenodd"/><path d="M329.829,421.149h.456v6.834h-.528l-1.769-5.52h-.009v5.52h-.456v-6.834h.557l1.74,5.521h.009Z" transform="translate(-254.056 -420.969)" fill="#1a1818" fill-rule="evenodd"/><path d="M336.755,425.994l-.363,1.989h-.485l1.308-6.834h.533l1.26,6.834h-.514l-.344-1.989Zm1.226-.818-.513-3.008h-.009l-.557,3.008Z" transform="translate(-258.986 -420.969)" fill="#1a1818" fill-rule="evenodd"/><path d="M345.574,427.165h1.764v.818H345.1v-6.834h.47Z" transform="translate(-264.393 -420.969)" fill="#1a1818" fill-rule="evenodd"/><path d="M360.109,421.149h1.41c.906,0,1.464,1.352,1.464,3.322,0,1.532-.339,3.512-1.483,3.512h-1.391Zm.47,6.044h.911c.61,0,1.008-.942,1.008-2.665s-.4-2.589-1.042-2.589h-.877Z" transform="translate(-273.216 -420.969)" fill="#1a1818" fill-rule="evenodd"/><path d="M371.85,427.983h-2.568v-6.834h2.534v.819h-2.064v2.094h1.9v.819h-1.9v2.284h2.1Z" transform="translate(-278.609 -420.969)" fill="#1a1818" fill-rule="evenodd"/><path d="M385.535,425.994l-.363,1.989h-.485L386,421.149h.533l1.26,6.834h-.514l-.344-1.989Zm1.226-.818-.514-3.008h-.01l-.557,3.008Z" transform="translate(-287.667 -420.969)" fill="#1a1818" fill-rule="evenodd"/><path d="M393.942,421.149h1.41c.906,0,1.464,1.352,1.464,3.322,0,1.532-.339,3.512-1.483,3.512h-1.391Zm.47,6.044h.911c.61,0,1.008-.942,1.008-2.665s-.4-2.589-1.042-2.589h-.877Z" transform="translate(-293.108 -420.969)" fill="#1a1818" fill-rule="evenodd"/><path d="M405.84,427.983v-4.035c0-.2.01-1.066.01-1.7h-.01l-.979,5.739H404.4l-.979-5.73h-.009c0,.628.009,1.494.009,1.694v4.035h-.455v-6.834h.674l.993,5.778h.009l.989-5.778h.668v6.834Z" transform="translate(-298.412 -420.969)" fill="#1a1818" fill-rule="evenodd"/><path d="M414.063,427.983h-.47v-6.834h.47Z" transform="translate(-304.662 -420.969)" fill="#1a1818" fill-rule="evenodd"/><path d="M419.616,421.149h.456v6.834h-.529l-1.768-5.52h-.009v5.52h-.455v-6.834h.557l1.74,5.521h.009Z" transform="translate(-306.848 -420.969)" fill="#1a1818" fill-rule="evenodd"/><path d="M427.07,427.983h-.47v-6.834h.47Z" transform="translate(-312.31 -420.969)" fill="#1a1818" fill-rule="evenodd"/><path d="M432.227,422.891c-.024-1.057-.47-1.39-.863-1.39-.3,0-.794.162-.794,1.2,0,.58.208.771.412.866l.993.447c.451.209.79.742.79,1.827,0,1.618-.766,2.066-1.362,2.066a1.108,1.108,0,0,1-1.051-.657,3.4,3.4,0,0,1-.354-1.732h.441c0,1.237.513,1.6.959,1.6.339,0,.911-.171.911-1.152a1.063,1.063,0,0,0-.741-1.209l-.712-.323c-.228-.105-.742-.419-.742-1.609,0-1.066.354-2.113,1.2-2.113,1.216,0,1.337,1.428,1.356,2.18Z" transform="translate(-314.308 -420.711)" fill="#1a1818" fill-rule="evenodd"/><path d="M438.054,421.149h2.825v.819H439.7v6.015h-.47v-6.015h-1.177Z" transform="translate(-319.045 -420.969)" fill="#1a1818" fill-rule="evenodd"/><path d="M447.2,427.983h-.47v-6.834h1.609c.571,0,1.143.391,1.143,1.837a2.179,2.179,0,0,1-.485,1.637c.2.162.4.333.417,1.285l.029,1.237c0,.381.029.524.174.686v.152h-.576a16.336,16.336,0,0,1-.082-1.713c0-.561-.058-1.218-.62-1.218H447.2Zm0-3.721h1.091c.344,0,.707-.171.707-1.18,0-1.057-.393-1.142-.625-1.142H447.2Z" transform="translate(-324.147 -420.969)" fill="#1a1818" fill-rule="evenodd"/><path d="M455.824,425.994l-.363,1.989h-.485l1.308-6.834h.533l1.26,6.834h-.514l-.344-1.989Zm1.226-.818-.514-3.008h-.01l-.557,3.008Z" transform="translate(-328.994 -420.969)" fill="#1a1818" fill-rule="evenodd"/><path d="M466.04,422.948c-.131-1.2-.64-1.419-.974-1.419-.63,0-1.139.914-1.139,2.713,0,1.609.291,2.846,1.153,2.846.305,0,.833-.286.993-1.875h.456c-.194,2.579-1.26,2.693-1.522,2.693-.789,0-1.565-1.009-1.565-3.636,0-2.1.611-3.56,1.623-3.56.9,0,1.361,1.094,1.43,2.237Z" transform="translate(-333.973 -420.711)" fill="#1a1818" fill-rule="evenodd"/><path d="M473.579,427.983h-.47v-6.834h.47Z" transform="translate(-339.656 -420.969)" fill="#1a1818" fill-rule="evenodd"/><path d="M478.087,427.906c-1.3,0-1.7-2.122-1.7-3.6s.4-3.6,1.7-3.6,1.7,2.122,1.7,3.6S479.385,427.906,478.087,427.906Zm0-6.377c-.756,0-1.212,1.171-1.212,2.779s.456,2.78,1.212,2.78,1.211-1.171,1.211-2.78S478.843,421.529,478.087,421.529Z" transform="translate(-341.586 -420.711)" fill="#1a1818" fill-rule="evenodd"/><path d="M488.905,421.149h.456v6.834h-.528l-1.768-5.52h-.01v5.52H486.6v-6.834h.557l1.74,5.521h.01Z" transform="translate(-347.588 -420.969)" fill="#1a1818" fill-rule="evenodd"/><path d="M502.181,421.149h2.825v.819h-1.178v6.015h-.47v-6.015h-1.177Z" transform="translate(-356.749 -420.969)" fill="#1a1818" fill-rule="evenodd"/><path d="M511.329,427.983h-.47v-6.834h1.609c.572,0,1.143.391,1.143,1.837a2.179,2.179,0,0,1-.484,1.637c.2.162.4.333.417,1.285l.029,1.237c.005.381.029.524.174.686v.152h-.576a16.342,16.342,0,0,1-.082-1.713c0-.561-.058-1.218-.62-1.218h-1.139Zm0-3.721h1.09c.344,0,.708-.171.708-1.18,0-1.057-.393-1.142-.625-1.142h-1.173Z" transform="translate(-361.852 -420.969)" fill="#1a1818" fill-rule="evenodd"/><path d="M520.479,427.983h-.47v-6.834h.47Z" transform="translate(-367.232 -420.969)" fill="#1a1818" fill-rule="evenodd"/><path d="M523.7,421.149h1.531c.649,0,.984.79.984,1.723a1.986,1.986,0,0,1-.465,1.428c.228.18.63.495.63,1.665,0,1.095-.412,2.018-1.182,2.018h-1.5Zm.47,2.894h.848c.451,0,.727-.267.727-1.1,0-.638-.2-1-.722-1h-.853Zm0,3.15h1c.49,0,.736-.485.736-1.247,0-.961-.431-1.152-.814-1.152h-.925Z" transform="translate(-369.402 -420.969)" fill="#1a1818" fill-rule="evenodd"/><path d="M534.847,421.149v4.436c0,1.4-.446,2.579-1.4,2.579-.935,0-1.337-1.18-1.337-2.455v-4.56h.47v4.3c0,1.485.46,1.894.882,1.894s.916-.391.916-1.875v-4.321Z" transform="translate(-374.346 -420.969)" fill="#1a1818" fill-rule="evenodd"/><path d="M540.459,421.149h2.825v.819h-1.178v6.015h-.47v-6.015h-1.177Z" transform="translate(-379.255 -420.969)" fill="#1a1818" fill-rule="evenodd"/><path d="M547.7,425.994l-.363,1.989h-.485l1.308-6.834h.533l1.26,6.834h-.514l-.344-1.989Zm1.226-.818-.514-3.008h-.01l-.557,3.008Z" transform="translate(-383.017 -420.969)" fill="#1a1818" fill-rule="evenodd"/><path d="M556.663,427.983h-.47v-6.834H557.8c.572,0,1.143.391,1.143,1.837a2.179,2.179,0,0,1-.485,1.637c.2.162.4.333.417,1.285l.029,1.237c0,.381.029.524.175.686v.152H558.5a16.228,16.228,0,0,1-.082-1.713c0-.561-.059-1.218-.621-1.218h-1.139Zm0-3.721h1.09c.344,0,.707-.171.707-1.18,0-1.057-.392-1.142-.625-1.142h-1.173Z" transform="translate(-388.507 -420.969)" fill="#1a1818" fill-rule="evenodd"/><path d="M565.813,427.983h-.47v-6.834h.47Z" transform="translate(-393.886 -420.969)" fill="#1a1818" fill-rule="evenodd"/><path d="M569.178,425.994l-.363,1.989h-.485l1.308-6.834h.533l1.26,6.834h-.514l-.344-1.989Zm1.226-.818-.514-3.008h-.01l-.557,3.008Z" transform="translate(-395.643 -420.969)" fill="#1a1818" fill-rule="evenodd"/></g></g></svg>